<svg width="15" height="15" viewBox="0 0 15 15" fill="none" xmlns="http://www.w3.org/2000/svg">
<path d="M3.66016 6.03659C3.66016 4.77374 4.6839 3.75 5.94674 3.75H8.96503C10.2279 3.75 11.2516 4.77374 11.2516 6.03659V9.05488C11.2516 10.3177 10.2279 11.3415 8.96503 11.3415H5.94674C4.6839 11.3415 3.66016 10.3177 3.66016 9.05488V6.03659Z" fill="url(#paint0_linear_707_4116)"/>
<g filter="url(#filter0_b_707_4116)">
<path d="M0 1.37195C0 0.614243 0.614244 0 1.37195 0H5.4878C6.24551 0 6.85976 0.614244 6.85976 1.37195V5.4878C6.85976 6.24551 6.24551 6.85976 5.4878 6.85976H1.37195C0.614243 6.85976 0 6.24551 0 5.4878V1.37195Z" fill="url(#paint1_linear_707_4116)" fill-opacity="0.3"/>
</g>
<g filter="url(#filter1_b_707_4116)">
<path fill-rule="evenodd" clip-rule="evenodd" d="M5.4878 0.0457317H1.37195C0.6395 0.0457317 0.0457317 0.6395 0.0457317 1.37195V5.4878C0.0457317 6.22026 0.6395 6.81402 1.37195 6.81402H5.4878C6.22026 6.81402 6.81402 6.22026 6.81402 5.4878V1.37195C6.81402 0.6395 6.22026 0.0457317 5.4878 0.0457317ZM1.37195 0C0.614244 0 0 0.614243 0 1.37195V5.4878C0 6.24551 0.614243 6.85976 1.37195 6.85976H5.4878C6.24551 6.85976 6.85976 6.24551 6.85976 5.4878V1.37195C6.85976 0.614244 6.24551 0 5.4878 0H1.37195Z" fill="url(#paint2_linear_707_4116)"/>
<path fill-rule="evenodd" clip-rule="evenodd" d="M5.4878 0.0457317H1.37195C0.6395 0.0457317 0.0457317 0.6395 0.0457317 1.37195V5.4878C0.0457317 6.22026 0.6395 6.81402 1.37195 6.81402H5.4878C6.22026 6.81402 6.81402 6.22026 6.81402 5.4878V1.37195C6.81402 0.6395 6.22026 0.0457317 5.4878 0.0457317ZM1.37195 0C0.614244 0 0 0.614243 0 1.37195V5.4878C0 6.24551 0.614243 6.85976 1.37195 6.85976H5.4878C6.24551 6.85976 6.85976 6.24551 6.85976 5.4878V1.37195C6.85976 0.614244 6.24551 0 5.4878 0H1.37195Z" fill="url(#paint3_radial_707_4116)"/>
</g>
<g filter="url(#filter2_b_707_4116)">
<path d="M8.14062 1.37195C8.14062 0.614243 8.75487 0 9.51258 0H13.6284C14.3861 0 15.0004 0.614244 15.0004 1.37195V5.4878C15.0004 6.24551 14.3861 6.85976 13.6284 6.85976H9.51258C8.75487 6.85976 8.14062 6.24551 8.14062 5.4878V1.37195Z" fill="url(#paint4_linear_707_4116)" fill-opacity="0.3"/>
</g>
<g filter="url(#filter3_b_707_4116)">
<path fill-rule="evenodd" clip-rule="evenodd" d="M13.6284 0.0457317H9.51258C8.78013 0.0457317 8.18636 0.6395 8.18636 1.37195V5.4878C8.18636 6.22026 8.78013 6.81402 9.51258 6.81402H13.6284C14.3609 6.81402 14.9546 6.22026 14.9546 5.4878V1.37195C14.9546 0.6395 14.3609 0.0457317 13.6284 0.0457317ZM9.51258 0C8.75487 0 8.14062 0.614243 8.14062 1.37195V5.4878C8.14062 6.24551 8.75487 6.85976 9.51258 6.85976H13.6284C14.3861 6.85976 15.0004 6.24551 15.0004 5.4878V1.37195C15.0004 0.614244 14.3861 0 13.6284 0H9.51258Z" fill="url(#paint5_linear_707_4116)"/>
<path fill-rule="evenodd" clip-rule="evenodd" d="M13.6284 0.0457317H9.51258C8.78013 0.0457317 8.18636 0.6395 8.18636 1.37195V5.4878C8.18636 6.22026 8.78013 6.81402 9.51258 6.81402H13.6284C14.3609 6.81402 14.9546 6.22026 14.9546 5.4878V1.37195C14.9546 0.6395 14.3609 0.0457317 13.6284 0.0457317ZM9.51258 0C8.75487 0 8.14062 0.614243 8.14062 1.37195V5.4878C8.14062 6.24551 8.75487 6.85976 9.51258 6.85976H13.6284C14.3861 6.85976 15.0004 6.24551 15.0004 5.4878V1.37195C15.0004 0.614244 14.3861 0 13.6284 0H9.51258Z" fill="url(#paint6_radial_707_4116)"/>
</g>
<g filter="url(#filter4_b_707_4116)">
<path d="M8.14062 9.51221C8.14062 8.7545 8.75487 8.14026 9.51258 8.14026H13.6284C14.3861 8.14026 15.0004 8.7545 15.0004 9.51221V13.6281C15.0004 14.3858 14.3861 15 13.6284 15H9.51258C8.75487 15 8.14062 14.3858 8.14062 13.6281V9.51221Z" fill="url(#paint7_linear_707_4116)" fill-opacity="0.3"/>
</g>
<g filter="url(#filter5_b_707_4116)">
<path fill-rule="evenodd" clip-rule="evenodd" d="M13.6284 8.18599H9.51258C8.78013 8.18599 8.18636 8.77976 8.18636 9.51221V13.6281C8.18636 14.3605 8.78013 14.9543 9.51258 14.9543H13.6284C14.3609 14.9543 14.9546 14.3605 14.9546 13.6281V9.51221C14.9546 8.77976 14.3609 8.18599 13.6284 8.18599ZM9.51258 8.14026C8.75487 8.14026 8.14062 8.7545 8.14062 9.51221V13.6281C8.14062 14.3858 8.75487 15 9.51258 15H13.6284C14.3861 15 15.0004 14.3858 15.0004 13.6281V9.51221C15.0004 8.7545 14.3861 8.14026 13.6284 8.14026H9.51258Z" fill="url(#paint8_linear_707_4116)"/>
<path fill-rule="evenodd" clip-rule="evenodd" d="M13.6284 8.18599H9.51258C8.78013 8.18599 8.18636 8.77976 8.18636 9.51221V13.6281C8.18636 14.3605 8.78013 14.9543 9.51258 14.9543H13.6284C14.3609 14.9543 14.9546 14.3605 14.9546 13.6281V9.51221C14.9546 8.77976 14.3609 8.18599 13.6284 8.18599ZM9.51258 8.14026C8.75487 8.14026 8.14062 8.7545 8.14062 9.51221V13.6281C8.14062 14.3858 8.75487 15 9.51258 15H13.6284C14.3861 15 15.0004 14.3858 15.0004 13.6281V9.51221C15.0004 8.7545 14.3861 8.14026 13.6284 8.14026H9.51258Z" fill="url(#paint9_radial_707_4116)"/>
</g>
<g filter="url(#filter6_b_707_4116)">
<path d="M0 9.51221C0 8.7545 0.614244 8.14026 1.37195 8.14026H5.4878C6.24551 8.14026 6.85976 8.7545 6.85976 9.51221V13.6281C6.85976 14.3858 6.24551 15 5.4878 15H1.37195C0.614243 15 0 14.3858 0 13.6281V9.51221Z" fill="url(#paint10_linear_707_4116)" fill-opacity="0.3"/>
</g>
<g filter="url(#filter7_b_707_4116)">
<path fill-rule="evenodd" clip-rule="evenodd" d="M5.4878 8.18599H1.37195C0.6395 8.18599 0.0457317 8.77976 0.0457317 9.51221V13.6281C0.0457317 14.3605 0.6395 14.9543 1.37195 14.9543H5.4878C6.22026 14.9543 6.81402 14.3605 6.81402 13.6281V9.51221C6.81402 8.77976 6.22026 8.18599 5.4878 8.18599ZM1.37195 8.14026C0.614244 8.14026 0 8.7545 0 9.51221V13.6281C0 14.3858 0.614243 15 1.37195 15H5.4878C6.24551 15 6.85976 14.3858 6.85976 13.6281V9.51221C6.85976 8.7545 6.24551 8.14026 5.4878 8.14026H1.37195Z" fill="url(#paint11_linear_707_4116)"/>
<path fill-rule="evenodd" clip-rule="evenodd" d="M5.4878 8.18599H1.37195C0.6395 8.18599 0.0457317 8.77976 0.0457317 9.51221V13.6281C0.0457317 14.3605 0.6395 14.9543 1.37195 14.9543H5.4878C6.22026 14.9543 6.81402 14.3605 6.81402 13.6281V9.51221C6.81402 8.77976 6.22026 8.18599 5.4878 8.18599ZM1.37195 8.14026C0.614244 8.14026 0 8.7545 0 9.51221V13.6281C0 14.3858 0.614243 15 1.37195 15H5.4878C6.24551 15 6.85976 14.3858 6.85976 13.6281V9.51221C6.85976 8.7545 6.24551 8.14026 5.4878 8.14026H1.37195Z" fill="url(#paint12_radial_707_4116)"/>
</g>
<defs>
<filter id="filter0_b_707_4116" x="-30" y="-30" width="66.8594" height="66.8597" filterUnits="userSpaceOnUse" color-interpolation-filters="sRGB">
<feFlood flood-opacity="0" result="BackgroundImageFix"/>
<feGaussianBlur in="BackgroundImageFix" stdDeviation="15"/>
<feComposite in2="SourceAlpha" operator="in" result="effect1_backgroundBlur_707_4116"/>
<feBlend mode="normal" in="SourceGraphic" in2="effect1_backgroundBlur_707_4116" result="shape"/>
</filter>
<filter id="filter1_b_707_4116" x="-1" y="-1" width="8.85938" height="8.85974" filterUnits="userSpaceOnUse" color-interpolation-filters="sRGB">
<feFlood flood-opacity="0" result="BackgroundImageFix"/>
<feGaussianBlur in="BackgroundImageFix" stdDeviation="0.5"/>
<feComposite in2="SourceAlpha" operator="in" result="effect1_backgroundBlur_707_4116"/>
<feBlend mode="normal" in="SourceGraphic" in2="effect1_backgroundBlur_707_4116" result="shape"/>
</filter>
<filter id="filter2_b_707_4116" x="7.14062" y="-1" width="8.85938" height="8.85974" filterUnits="userSpaceOnUse" color-interpolation-filters="sRGB">
<feFlood flood-opacity="0" result="BackgroundImageFix"/>
<feGaussianBlur in="BackgroundImageFix" stdDeviation="0.5"/>
<feComposite in2="SourceAlpha" operator="in" result="effect1_backgroundBlur_707_4116"/>
<feBlend mode="normal" in="SourceGraphic" in2="effect1_backgroundBlur_707_4116" result="shape"/>
</filter>
<filter id="filter3_b_707_4116" x="-21.8594" y="-30" width="66.8594" height="66.8597" filterUnits="userSpaceOnUse" color-interpolation-filters="sRGB">
<feFlood flood-opacity="0" result="BackgroundImageFix"/>
<feGaussianBlur in="BackgroundImageFix" stdDeviation="15"/>
<feComposite in2="SourceAlpha" operator="in" result="effect1_backgroundBlur_707_4116"/>
<feBlend mode="normal" in="SourceGraphic" in2="effect1_backgroundBlur_707_4116" result="shape"/>
</filter>
<filter id="filter4_b_707_4116" x="7.14062" y="7.14026" width="8.85938" height="8.85974" filterUnits="userSpaceOnUse" color-interpolation-filters="sRGB">
<feFlood flood-opacity="0" result="BackgroundImageFix"/>
<feGaussianBlur in="BackgroundImageFix" stdDeviation="0.5"/>
<feComposite in2="SourceAlpha" operator="in" result="effect1_backgroundBlur_707_4116"/>
<feBlend mode="normal" in="SourceGraphic" in2="effect1_backgroundBlur_707_4116" result="shape"/>
</filter>
<filter id="filter5_b_707_4116" x="-21.8594" y="-21.8597" width="66.8594" height="66.8597" filterUnits="userSpaceOnUse" color-interpolation-filters="sRGB">
<feFlood flood-opacity="0" result="BackgroundImageFix"/>
<feGaussianBlur in="BackgroundImageFix" stdDeviation="15"/>
<feComposite in2="SourceAlpha" operator="in" result="effect1_backgroundBlur_707_4116"/>
<feBlend mode="normal" in="SourceGraphic" in2="effect1_backgroundBlur_707_4116" result="shape"/>
</filter>
<filter id="filter6_b_707_4116" x="-1" y="7.14026" width="8.85938" height="8.85974" filterUnits="userSpaceOnUse" color-interpolation-filters="sRGB">
<feFlood flood-opacity="0" result="BackgroundImageFix"/>
<feGaussianBlur in="BackgroundImageFix" stdDeviation="0.5"/>
<feComposite in2="SourceAlpha" operator="in" result="effect1_backgroundBlur_707_4116"/>
<feBlend mode="normal" in="SourceGraphic" in2="effect1_backgroundBlur_707_4116" result="shape"/>
</filter>
<filter id="filter7_b_707_4116" x="-30" y="-21.8597" width="66.8594" height="66.8597" filterUnits="userSpaceOnUse" color-interpolation-filters="sRGB">
<feFlood flood-opacity="0" result="BackgroundImageFix"/>
<feGaussianBlur in="BackgroundImageFix" stdDeviation="15"/>
<feComposite in2="SourceAlpha" operator="in" result="effect1_backgroundBlur_707_4116"/>
<feBlend mode="normal" in="SourceGraphic" in2="effect1_backgroundBlur_707_4116" result="shape"/>
</filter>
<linearGradient id="paint0_linear_707_4116" x1="3.66016" y1="11.3415" x2="11.2516" y2="11.3415" gradientUnits="userSpaceOnUse">
<stop stop-color="#FBC2EB"/>
<stop offset="1" stop-color="#A18CD1"/>
</linearGradient>
<linearGradient id="paint1_linear_707_4116" x1="0" y1="6.85976" x2="6.85976" y2="6.85976" gradientUnits="userSpaceOnUse">
<stop stop-color="#E100FF"/>
<stop offset="1" stop-color="#7F00FF"/>
</linearGradient>
<linearGradient id="paint2_linear_707_4116" x1="0.987197" y1="-0.244991" x2="7.41707" y2="3.50918" gradientUnits="userSpaceOnUse">
<stop offset="0.188941" stop-color="#E7F0FF" stop-opacity="0.523483"/>
<stop offset="0.526042" stop-color="#88A4FF"/>
<stop offset="1" stop-color="#B4D2FF" stop-opacity="0.1"/>
</linearGradient>
<radialGradient id="paint3_radial_707_4116" cx="0" cy="0" r="1" gradientUnits="userSpaceOnUse" gradientTransform="translate(1.02517 6.63518) rotate(-50.9773) scale(5.38716 8.80862)">
<stop stop-color="white"/>
<stop offset="1" stop-color="white" stop-opacity="0"/>
</radialGradient>
<linearGradient id="paint4_linear_707_4116" x1="8.14062" y1="6.85976" x2="15.0004" y2="6.85976" gradientUnits="userSpaceOnUse">
<stop stop-color="#E100FF"/>
<stop offset="1" stop-color="#7F00FF"/>
</linearGradient>
<linearGradient id="paint5_linear_707_4116" x1="9.12782" y1="-0.244991" x2="15.5577" y2="3.50918" gradientUnits="userSpaceOnUse">
<stop offset="0.188941" stop-color="#E7F0FF" stop-opacity="0.523483"/>
<stop offset="0.526042" stop-color="#88A4FF"/>
<stop offset="1" stop-color="#B4D2FF" stop-opacity="0.1"/>
</linearGradient>
<radialGradient id="paint6_radial_707_4116" cx="0" cy="0" r="1" gradientUnits="userSpaceOnUse" gradientTransform="translate(9.16579 6.63518) rotate(-50.9773) scale(5.38716 8.80862)">
<stop stop-color="white"/>
<stop offset="1" stop-color="white" stop-opacity="0"/>
</radialGradient>
<linearGradient id="paint7_linear_707_4116" x1="8.14062" y1="15" x2="15.0004" y2="15" gradientUnits="userSpaceOnUse">
<stop stop-color="#E100FF"/>
<stop offset="1" stop-color="#7F00FF"/>
</linearGradient>
<linearGradient id="paint8_linear_707_4116" x1="9.12782" y1="7.89527" x2="15.5577" y2="11.6494" gradientUnits="userSpaceOnUse">
<stop offset="0.188941" stop-color="#E7F0FF" stop-opacity="0.523483"/>
<stop offset="0.526042" stop-color="#88A4FF"/>
<stop offset="1" stop-color="#B4D2FF" stop-opacity="0.1"/>
</linearGradient>
<radialGradient id="paint9_radial_707_4116" cx="0" cy="0" r="1" gradientUnits="userSpaceOnUse" gradientTransform="translate(9.16579 14.7754) rotate(-50.9773) scale(5.38716 8.80862)">
<stop stop-color="white"/>
<stop offset="1" stop-color="white" stop-opacity="0"/>
</radialGradient>
<linearGradient id="paint10_linear_707_4116" x1="0" y1="15" x2="6.85976" y2="15" gradientUnits="userSpaceOnUse">
<stop stop-color="#E100FF"/>
<stop offset="1" stop-color="#7F00FF"/>
</linearGradient>
<linearGradient id="paint11_linear_707_4116" x1="0.987197" y1="7.89527" x2="7.41707" y2="11.6494" gradientUnits="userSpaceOnUse">
<stop offset="0.188941" stop-color="#E7F0FF" stop-opacity="0.523483"/>
<stop offset="0.526042" stop-color="#88A4FF"/>
<stop offset="1" stop-color="#B4D2FF" stop-opacity="0.1"/>
</linearGradient>
<radialGradient id="paint12_radial_707_4116" cx="0" cy="0" r="1" gradientUnits="userSpaceOnUse" gradientTransform="translate(1.02517 14.7754) rotate(-50.9773) scale(5.38716 8.80862)">
<stop stop-color="white"/>
<stop offset="1" stop-color="white" stop-opacity="0"/>
</radialGradient>
</defs>
</svg>
