<svg width="76" height="77" viewBox="0 0 76 77" fill="none" xmlns="http://www.w3.org/2000/svg">
<g filter="url(#filter0_d_372_12843)">
<g filter="url(#filter1_d_372_12843)">
<circle cx="38" cy="38.8652" r="20" fill="white"/>
</g>
<path d="M43.9242 28.8652H32.0758C30.9952 28.8666 29.9592 29.2962 29.1952 30.0604C28.431 30.8244 28.0013 31.8604 28 32.941V44.7894C28.0014 45.87 28.431 46.9061 29.1952 47.67C29.9592 48.4342 30.9952 48.8639 32.0758 48.8652H43.9242C45.0048 48.8639 46.0408 48.4342 46.8048 47.67C47.569 46.9061 47.9987 45.87 48 44.7894V32.941C47.9986 31.8604 47.569 30.8244 46.8048 30.0604C46.0408 29.2962 45.0048 28.8666 43.9242 28.8652ZM32.0758 30.4956H43.9242C44.5727 30.4962 45.1942 30.7542 45.6526 31.2127C46.1111 31.671 46.369 32.2926 46.3697 32.941V38.0501H42.6373C42.3835 36.5809 41.4484 35.319 40.1167 34.6482C38.7853 33.9775 37.2145 33.9775 35.8829 34.6482C34.5514 35.319 33.6164 36.5808 33.3623 38.0501H29.6301V32.941C29.6308 32.2926 29.8888 31.671 30.3473 31.2127C30.8056 30.7541 31.4272 30.4962 32.0756 30.4956H32.0758ZM41.0892 38.8655C41.0892 39.685 40.7637 40.4708 40.1844 41.0502C39.6051 41.6295 38.8193 41.9549 37.9998 41.9549C37.1802 41.9549 36.3945 41.6295 35.8151 41.0502C35.2358 40.4709 34.9104 39.6851 34.9104 38.8655C34.9104 38.046 35.2358 37.2602 35.8151 36.6809C36.3944 36.1015 37.1802 35.7761 37.9998 35.7761C38.8188 35.777 39.6042 36.1027 40.1832 36.6821C40.7625 37.2611 41.0882 38.0465 41.0892 38.8655ZM43.9241 47.2355H32.0757C31.4272 47.2348 30.8057 46.9769 30.3473 46.5184C29.8888 46.0601 29.6308 45.4385 29.6302 44.79V39.6809H33.3626C33.6164 41.1502 34.5515 42.4121 35.8831 43.0828C37.2146 43.7536 38.7854 43.7536 40.117 43.0828C41.4485 42.4121 42.3835 41.1503 42.6376 39.6809H46.37V44.79H46.3697C46.3691 45.4385 46.1111 46.06 45.6529 46.5184C45.1943 46.9769 44.5727 47.2349 43.9243 47.2355H43.9241ZM42.0033 32.6511C42.0031 32.4348 42.0888 32.2274 42.2419 32.0745C42.3948 31.9214 42.6022 31.8357 42.8185 31.8359H43.8932C44.3433 31.8359 44.7083 32.2007 44.7083 32.6511C44.7083 33.1012 44.3433 33.4662 43.8932 33.4662H42.8185C42.6022 33.4662 42.3948 33.3805 42.2419 33.2274C42.0888 33.0746 42.0031 32.8672 42.0033 32.6511Z" fill="url(#paint0_linear_372_12843)"/>
</g>
<defs>
<filter id="filter0_d_372_12843" x="0" y="0.865234" width="76" height="76" filterUnits="userSpaceOnUse" color-interpolation-filters="sRGB">
<feFlood flood-opacity="0" result="BackgroundImageFix"/>
<feColorMatrix in="SourceAlpha" type="matrix" values="0 0 0 0 0 0 0 0 0 0 0 0 0 0 0 0 0 0 127 0" result="hardAlpha"/>
<feOffset/>
<feGaussianBlur stdDeviation="9"/>
<feComposite in2="hardAlpha" operator="out"/>
<feColorMatrix type="matrix" values="0 0 0 0 0.138542 0 0 0 0 0.152001 0 0 0 0 0.475 0 0 0 0.1 0"/>
<feBlend mode="normal" in2="BackgroundImageFix" result="effect1_dropShadow_372_12843"/>
<feBlend mode="normal" in="SourceGraphic" in2="effect1_dropShadow_372_12843" result="shape"/>
</filter>
<filter id="filter1_d_372_12843" x="0" y="0.865234" width="76" height="76" filterUnits="userSpaceOnUse" color-interpolation-filters="sRGB">
<feFlood flood-opacity="0" result="BackgroundImageFix"/>
<feColorMatrix in="SourceAlpha" type="matrix" values="0 0 0 0 0 0 0 0 0 0 0 0 0 0 0 0 0 0 127 0" result="hardAlpha"/>
<feOffset/>
<feGaussianBlur stdDeviation="9"/>
<feComposite in2="hardAlpha" operator="out"/>
<feColorMatrix type="matrix" values="0 0 0 0 0.138542 0 0 0 0 0.152001 0 0 0 0 0.475 0 0 0 0.1 0"/>
<feBlend mode="normal" in2="BackgroundImageFix" result="effect1_dropShadow_372_12843"/>
<feBlend mode="normal" in="SourceGraphic" in2="effect1_dropShadow_372_12843" result="shape"/>
</filter>
<linearGradient id="paint0_linear_372_12843" x1="28" y1="46.4578" x2="57.0849" y2="43.4677" gradientUnits="userSpaceOnUse">
<stop stop-color="#1D0C33"/>
<stop offset="1" stop-color="#D283EA"/>
</linearGradient>
</defs>
</svg>
