<svg width="210" height="114" viewBox="0 0 210 114" fill="none" xmlns="http://www.w3.org/2000/svg">
<path d="M0 57.3337C0 26.0375 25.3705 0.666992 56.6666 0.666992H153.333C184.629 0.666992 210 26.0375 210 57.3337C210 88.6298 184.629 114 153.333 114H56.6666C25.3705 114 0 88.6298 0 57.3337Z" fill="#FBC2EB" fill-opacity="0.1"/>
<path fill-rule="evenodd" clip-rule="evenodd" d="M153.333 1.66699H56.6666C25.9228 1.66699 1 26.5898 1 57.3337C1 88.0775 25.9228 113 56.6666 113H153.333C184.077 113 209 88.0775 209 57.3337C209 26.5898 184.077 1.66699 153.333 1.66699ZM56.6666 0.666992C25.3705 0.666992 0 26.0375 0 57.3337C0 88.6298 25.3705 114 56.6666 114H153.333C184.629 114 210 88.6298 210 57.3337C210 26.0375 184.629 0.666992 153.333 0.666992H56.6666Z" fill="url(#paint0_linear_702_2485)"/>
<path fill-rule="evenodd" clip-rule="evenodd" d="M153.333 1.66699H56.6666C25.9228 1.66699 1 26.5898 1 57.3337C1 88.0775 25.9228 113 56.6666 113H153.333C184.077 113 209 88.0775 209 57.3337C209 26.5898 184.077 1.66699 153.333 1.66699ZM56.6666 0.666992C25.3705 0.666992 0 26.0375 0 57.3337C0 88.6298 25.3705 114 56.6666 114H153.333C184.629 114 210 88.6298 210 57.3337C210 26.0375 184.629 0.666992 153.333 0.666992H56.6666Z" fill="url(#paint1_radial_702_2485)"/>
<defs>
<linearGradient id="paint0_linear_702_2485" x1="30.2214" y1="-3.38063" x2="151.829" y2="128.183" gradientUnits="userSpaceOnUse">
<stop offset="0.188941" stop-color="#E7F0FF" stop-opacity="0.523483"/>
<stop offset="0.526042" stop-color="#88A4FF"/>
<stop offset="1" stop-color="#B4D2FF" stop-opacity="0.1"/>
</linearGradient>
<radialGradient id="paint1_radial_702_2485" cx="0" cy="0" r="1" gradientUnits="userSpaceOnUse" gradientTransform="translate(31.3838 110.29) rotate(-33.6602) scale(124.754 192.386)">
<stop stop-color="white"/>
<stop offset="1" stop-color="white" stop-opacity="0"/>
</radialGradient>
</defs>
</svg>
