<svg width="69" height="69" viewBox="0 0 69 69" fill="none" xmlns="http://www.w3.org/2000/svg">
<circle cx="34.5" cy="34.5" r="34.5" fill="white"/>
<path fill-rule="evenodd" clip-rule="evenodd" d="M29.7921 21.7369C32.5598 21.0877 35.4402 21.0877 38.2079 21.7369C42.2048 22.6744 45.3256 25.7953 46.2631 29.7921C46.9123 32.5598 46.9123 35.4402 46.2631 38.2079C45.3256 42.2047 42.2048 45.3256 38.2079 46.2631C35.4402 46.9123 32.5598 46.9123 29.7921 46.2631C25.7953 45.3255 22.6745 42.2048 21.7369 38.2079C21.0877 35.4402 21.0877 32.5598 21.7369 29.7921C22.6745 25.7952 25.7953 22.6744 29.7921 21.7369ZM36.815 35.9315C37.1328 36.2493 37.648 36.2493 37.9657 35.9315C38.2835 35.6137 38.2835 35.0985 37.9657 34.7807L34.5753 31.3904C34.4227 31.2378 34.2158 31.152 34 31.152C33.7842 31.152 33.5772 31.2378 33.4246 31.3904L30.0342 34.7807C29.7164 35.0985 29.7164 35.6137 30.0342 35.9315C30.352 36.2493 30.8672 36.2493 31.1849 35.9315L34 33.1165L36.815 35.9315Z" fill="url(#paint0_linear_202_2019)"/>
<defs>
<linearGradient id="paint0_linear_202_2019" x1="21.25" y1="43.6806" x2="58.3332" y2="39.8682" gradientUnits="userSpaceOnUse">
<stop stop-color="#1D0C33"/>
<stop offset="1" stop-color="#D283EA"/>
</linearGradient>
</defs>
</svg>
