<svg width="20" height="17" viewBox="0 0 20 17" fill="none" xmlns="http://www.w3.org/2000/svg">
<path d="M17.0992 3.66195H11.1858C10.6848 3.65384 10.225 3.38332 9.97455 2.94948L9.06964 1.48176C8.55438 0.623945 7.62675 0.0992838 6.62595 0.0996095H2.84987C2.09401 0.0996095 1.36912 0.399864 0.834768 0.934378C0.300254 1.46873 0 2.19361 0 2.94948V13.6365C0 14.3924 0.300254 15.1173 0.834768 15.6516C1.36912 16.1861 2.09401 16.4864 2.84987 16.4864H4.27481C4.52942 16.4864 4.76462 16.3506 4.89185 16.1301C5.01907 15.9097 5.01907 15.6381 4.89185 15.4177C4.76462 15.1973 4.52941 15.0614 4.27481 15.0614H2.84987C2.47201 15.0614 2.10956 14.9113 1.84224 14.6441C1.57506 14.3768 1.42494 14.0144 1.42494 13.6365V2.94948C1.42494 2.57162 1.57506 2.20917 1.84224 1.94185C2.10957 1.67467 2.47202 1.52455 2.84987 1.52455H6.62595C7.12692 1.53266 7.58669 1.80317 7.83715 2.23701L8.72774 3.72603C9.25097 4.58006 10.1841 5.09674 11.1858 5.08689H17.0992C17.4771 5.08689 17.8396 5.23701 18.1069 5.50419C18.374 5.77152 18.5242 6.13397 18.5242 6.51182V13.6365C18.5242 14.0144 18.374 14.3768 18.1069 14.6441C17.8395 14.9113 17.4771 15.0614 17.0992 15.0614H7.83715C7.58254 15.0614 7.34734 15.1973 7.22011 15.4177C7.09289 15.6381 7.09289 15.9097 7.22011 16.1301C7.34734 16.3506 7.58255 16.4864 7.83715 16.4864H17.0992C17.8551 16.4864 18.58 16.1861 19.1143 15.6516C19.6489 15.1173 19.9491 14.3924 19.9491 13.6365V6.51182C19.9491 5.75596 19.6489 5.03107 19.1143 4.49672C18.58 3.9622 17.8551 3.66195 17.0992 3.66195Z" fill="url(#paint0_linear_388_2071)"/>
<path d="M7.63707 12.7677C7.80119 12.8712 7.99155 12.9256 8.18559 12.9245C8.35385 12.9248 8.51972 12.8859 8.67015 12.8105L12.2325 10.9794V10.9795C12.5696 10.8059 12.7905 10.4678 12.8139 10.0893C12.8373 9.71077 12.6596 9.34785 12.3464 9.13411L8.78402 6.69739V6.69755C8.5698 6.55123 8.30915 6.48842 8.05185 6.52118C7.79437 6.55394 7.55772 6.67973 7.38677 6.87503C7.21597 7.07032 7.12246 7.32144 7.12405 7.58098V11.8558C7.1215 12.2292 7.31664 12.576 7.63711 12.7677L7.63707 12.7677ZM8.54895 8.26491L11.0639 9.982L8.54895 11.2644V8.26491Z" fill="url(#paint1_linear_388_2071)"/>
<defs>
<linearGradient id="paint0_linear_388_2071" x1="-2.99445e-07" y1="14.5139" x2="28.8653" y2="10.9012" gradientUnits="userSpaceOnUse">
<stop stop-color="#1D0C33"/>
<stop offset="1" stop-color="#D283EA"/>
</linearGradient>
<linearGradient id="paint1_linear_388_2071" x1="7.12402" y1="12.1527" x2="15.4199" y2="11.3956" gradientUnits="userSpaceOnUse">
<stop stop-color="#1D0C33"/>
<stop offset="1" stop-color="#D283EA"/>
</linearGradient>
</defs>
</svg>
