<svg width="76" height="77" viewBox="0 0 76 77" fill="none" xmlns="http://www.w3.org/2000/svg">
<g filter="url(#filter0_d_2_4745)">
<circle cx="38" cy="38.4326" r="20" fill="white"/>
</g>
<path d="M45.0992 33.662H39.1858C38.6848 33.6538 38.225 33.3833 37.9746 32.9495L37.0696 31.4818C36.5544 30.6239 35.6267 30.0993 34.626 30.0996H30.8499C30.094 30.0996 29.3691 30.3999 28.8348 30.9344C28.3003 31.4687 28 32.1936 28 32.9495V43.6365C28 44.3924 28.3003 45.1173 28.8348 45.6516C29.3691 46.1861 30.094 46.4864 30.8499 46.4864H32.2748C32.5294 46.4864 32.7646 46.3506 32.8918 46.1301C33.0191 45.9097 33.0191 45.6381 32.8918 45.4177C32.7646 45.1973 32.5294 45.0614 32.2748 45.0614H30.8499C30.472 45.0614 30.1096 44.9113 29.8422 44.6441C29.5751 44.3768 29.4249 44.0144 29.4249 43.6365V32.9495C29.4249 32.5716 29.5751 32.2092 29.8422 31.9418C30.1096 31.6747 30.472 31.5245 30.8499 31.5245H34.626C35.1269 31.5327 35.5867 31.8032 35.8372 32.237L36.7277 33.726C37.251 34.5801 38.1841 35.0967 39.1858 35.0869H45.0992C45.4771 35.0869 45.8396 35.237 46.1069 35.5042C46.374 35.7715 46.5242 36.134 46.5242 36.5118V43.6365C46.5242 44.0144 46.374 44.3768 46.1069 44.6441C45.8395 44.9113 45.4771 45.0614 45.0992 45.0614H35.8372C35.5825 45.0614 35.3473 45.1973 35.2201 45.4177C35.0929 45.6381 35.0929 45.9097 35.2201 46.1301C35.3473 46.3506 35.5825 46.4864 35.8372 46.4864H45.0992C45.8551 46.4864 46.58 46.1861 47.1143 45.6516C47.6489 45.1173 47.9491 44.3924 47.9491 43.6365V36.5118C47.9491 35.756 47.6489 35.0311 47.1143 34.4967C46.58 33.9622 45.8551 33.662 45.0992 33.662Z" fill="url(#paint0_linear_2_4745)"/>
<path d="M35.6372 42.7677C35.8013 42.8712 35.9917 42.9256 36.1857 42.9245C36.354 42.9248 36.5198 42.8859 36.6703 42.8105L40.2326 40.9794V40.9795C40.5698 40.8059 40.7907 40.4678 40.814 40.0893C40.8374 39.7108 40.6598 39.3479 40.3465 39.1341L36.7841 36.6974V36.6975C36.5699 36.5512 36.3093 36.4884 36.052 36.5212C35.7945 36.5539 35.5578 36.6797 35.3869 36.875C35.2161 37.0703 35.1226 37.3214 35.1242 37.581V41.8558C35.1216 42.2292 35.3168 42.576 35.6372 42.7677L35.6372 42.7677ZM36.5491 38.2649L39.064 39.982L36.5491 41.2644V38.2649Z" fill="url(#paint1_linear_2_4745)"/>
<defs>
<filter id="filter0_d_2_4745" x="0" y="0.432617" width="76" height="76" filterUnits="userSpaceOnUse" color-interpolation-filters="sRGB">
<feFlood flood-opacity="0" result="BackgroundImageFix"/>
<feColorMatrix in="SourceAlpha" type="matrix" values="0 0 0 0 0 0 0 0 0 0 0 0 0 0 0 0 0 0 127 0" result="hardAlpha"/>
<feOffset/>
<feGaussianBlur stdDeviation="9"/>
<feComposite in2="hardAlpha" operator="out"/>
<feColorMatrix type="matrix" values="0 0 0 0 0.138542 0 0 0 0 0.152001 0 0 0 0 0.475 0 0 0 0.1 0"/>
<feBlend mode="normal" in2="BackgroundImageFix" result="effect1_dropShadow_2_4745"/>
<feBlend mode="normal" in="SourceGraphic" in2="effect1_dropShadow_2_4745" result="shape"/>
</filter>
<linearGradient id="paint0_linear_2_4745" x1="28" y1="44.5139" x2="56.8653" y2="40.9012" gradientUnits="userSpaceOnUse">
<stop stop-color="#1D0C33"/>
<stop offset="1" stop-color="#D283EA"/>
</linearGradient>
<linearGradient id="paint1_linear_2_4745" x1="35.1241" y1="42.1527" x2="43.42" y2="41.3956" gradientUnits="userSpaceOnUse">
<stop stop-color="#1D0C33"/>
<stop offset="1" stop-color="#D283EA"/>
</linearGradient>
</defs>
</svg>
