<svg width="30" height="30" viewBox="0 0 30 30" fill="none" xmlns="http://www.w3.org/2000/svg">
<path fill-rule="evenodd" clip-rule="evenodd" d="M4.24264 0.585786C3.46159 -0.195262 2.19526 -0.195262 1.41421 0.585786C0.633165 1.36683 0.633165 2.63316 1.41421 3.41421L12.1716 14.1716L0.585786 25.7574C-0.195262 26.5384 -0.195262 27.8047 0.585786 28.5858C1.36683 29.3668 2.63316 29.3668 3.41421 28.5858L15 17L26.5858 28.5858C27.3668 29.3668 28.6332 29.3668 29.4142 28.5858C30.1953 27.8047 30.1953 26.5384 29.4142 25.7574L17.8284 14.1716L28.5858 3.41421C29.3668 2.63317 29.3668 1.36683 28.5858 0.585786C27.8047 -0.195262 26.5384 -0.195261 25.7574 0.585786L15 11.3431L4.24264 0.585786Z" fill="url(#paint0_linear_872_1721)"/>
<defs>
<linearGradient id="paint0_linear_872_1721" x1="-4.50314e-07" y1="25.6602" x2="43.601" y2="21.0504" gradientUnits="userSpaceOnUse">
<stop stop-color="#1D0C33"/>
<stop offset="1" stop-color="#D283EA"/>
</linearGradient>
</defs>
</svg>
