<svg width="20" height="21" viewBox="0 0 20 21" fill="none" xmlns="http://www.w3.org/2000/svg">
<path d="M15.9242 0.865234H4.07581C2.9952 0.866599 1.95918 1.29624 1.1952 2.06044C0.430988 2.82442 0.00133919 3.86043 0 4.94104V16.7894C0.0013647 17.87 0.431006 18.9061 1.1952 19.67C1.95918 20.4342 2.9952 20.8639 4.07581 20.8652H15.9242C17.0048 20.8639 18.0408 20.4342 18.8048 19.67C19.569 18.9061 19.9987 17.87 20 16.7894V4.94104C19.9986 3.86043 19.569 2.82442 18.8048 2.06044C18.0408 1.29622 17.0048 0.866574 15.9242 0.865234ZM4.07581 2.49556H15.9242C16.5727 2.49624 17.1942 2.75416 17.6526 3.21267C18.1111 3.67097 18.369 4.29258 18.3697 4.94104V10.0501H14.6373C14.3835 8.58086 13.4484 7.31899 12.1167 6.64823C10.7853 5.97747 9.21453 5.97747 7.88285 6.64823C6.5514 7.31899 5.61635 8.5808 5.36231 10.0501H1.63015V4.94104C1.63083 4.29258 1.88875 3.67102 2.34726 3.21267C2.80556 2.75414 3.42717 2.4962 4.07564 2.49556H4.07581ZM13.0892 10.8655C13.0892 11.685 12.7637 12.4708 12.1844 13.0502C11.6051 13.6295 10.8193 13.9549 9.99977 13.9549C9.18024 13.9549 8.39448 13.6295 7.81513 13.0502C7.23579 12.4709 6.91036 11.6851 6.91036 10.8655C6.91036 10.046 7.23583 9.26024 7.81513 8.68089C8.39443 8.10154 9.18024 7.77612 9.99977 7.77612C10.8188 7.77703 11.6042 8.10273 12.1832 8.68206C12.7625 9.26113 13.0882 10.0465 13.0892 10.8655ZM15.9241 19.2355H4.07569C3.42723 19.2348 2.80567 18.9769 2.34732 18.5184C1.88879 18.0601 1.63085 17.4385 1.63021 16.79V11.6809H5.3626C5.61643 13.1502 6.55146 14.4121 7.88314 15.0828C9.21459 15.7536 10.7854 15.7536 12.117 15.0828C13.4485 14.4121 14.3835 13.1503 14.6376 11.6809H18.37V16.79H18.3697C18.3691 17.4385 18.1111 18.06 17.6529 18.5184C17.1943 18.9769 16.5727 19.2349 15.9243 19.2355H15.9241ZM14.0033 4.65108C14.0031 4.43478 14.0888 4.22735 14.2419 4.07451C14.3948 3.92144 14.6022 3.83569 14.8185 3.83592H15.8932C16.3433 3.83592 16.7083 4.20074 16.7083 4.65108C16.7083 5.10119 16.3433 5.46624 15.8932 5.46624H14.8185C14.6022 5.46624 14.3948 5.38049 14.2419 5.22742C14.0888 5.07458 14.0031 4.86715 14.0033 4.65108Z" fill="url(#paint0_linear_388_2076)"/>
<defs>
<linearGradient id="paint0_linear_388_2076" x1="-3.00209e-07" y1="18.4578" x2="29.0849" y2="15.4677" gradientUnits="userSpaceOnUse">
<stop stop-color="#1D0C33"/>
<stop offset="1" stop-color="#D283EA"/>
</linearGradient>
</defs>
</svg>
