<svg width="148" height="55" viewBox="0 0 148 55" fill="none" xmlns="http://www.w3.org/2000/svg">
<g style="mix-blend-mode:color-dodge">
<path d="M24.7225 41.25H19.745L7.1225 23.9525L3.85 27.885V41.25H0V2.75H3.85V21.89L19.8825 2.75H24.915L9.6525 20.9275L24.7225 41.25Z" fill="#FDFDFD"/>
<path d="M39.4389 41.965C36.9089 41.965 34.5989 41.3142 32.5089 40.0125C30.4372 38.7108 28.778 36.9692 27.5314 34.7875C26.303 32.5875 25.6889 30.1583 25.6889 27.5C25.6889 25.4833 26.0464 23.6042 26.7614 21.8625C27.4764 20.1025 28.4572 18.5625 29.7039 17.2425C30.9689 15.9042 32.4355 14.8592 34.1039 14.1075C35.7722 13.3558 37.5505 12.98 39.4389 12.98C41.4739 12.98 43.3439 13.3833 45.0489 14.19C46.7722 14.9967 48.248 16.1242 49.4764 17.5725C50.723 19.0208 51.658 20.7167 52.2814 22.66C52.923 24.6033 53.1889 26.7025 53.0789 28.9575H29.7589C29.9789 30.6992 30.5289 32.2575 31.4089 33.6325C32.3072 35.0075 33.4439 36.0983 34.8189 36.905C36.2122 37.6933 37.7522 38.0967 39.4389 38.115C41.2722 38.115 42.9222 37.6383 44.3889 36.685C45.8739 35.7317 47.0655 34.4208 47.9639 32.7525L51.8689 33.66C50.7689 36.0983 49.1097 38.0967 46.8914 39.655C44.673 41.195 42.1889 41.965 39.4389 41.965ZM29.6489 25.85H49.2014C49.073 24.145 48.5505 22.5867 47.6339 21.175C46.7355 19.745 45.5714 18.6083 44.1414 17.765C42.7114 16.9033 41.1439 16.4725 39.4389 16.4725C37.7339 16.4725 36.1755 16.8942 34.7639 17.7375C33.3522 18.5625 32.1972 19.69 31.2989 21.12C30.4005 22.5317 29.8505 24.1083 29.6489 25.85Z" fill="#FDFDFD"/>
<path d="M57.5781 41.25V0H61.4281V41.25H57.5781Z" fill="#FDFDFD"/>
<path d="M71.9018 55H68.0518V13.75H71.9018V18.8925C72.8551 17.1508 74.1568 15.7392 75.8067 14.6575C77.4567 13.5758 79.4184 13.035 81.6917 13.035C83.6901 13.035 85.5601 13.4108 87.3018 14.1625C89.0618 14.9142 90.6018 15.9592 91.9218 17.2975C93.2418 18.6175 94.2776 20.1483 95.0293 21.89C95.7809 23.6317 96.1568 25.5017 96.1568 27.5C96.1568 29.4983 95.7809 31.3775 95.0293 33.1375C94.2776 34.8975 93.2418 36.4467 91.9218 37.785C90.6018 39.105 89.0618 40.1408 87.3018 40.8925C85.5601 41.6442 83.6901 42.02 81.6917 42.02C79.4184 42.02 77.4567 41.4792 75.8067 40.3975C74.1568 39.3158 72.8551 37.9042 71.9018 36.1625V55ZM81.6643 16.775C79.7393 16.775 78.0618 17.2608 76.6318 18.2325C75.2201 19.1858 74.1293 20.4692 73.3593 22.0825C72.5893 23.6958 72.2043 25.5017 72.2043 27.5C72.2043 29.4617 72.5801 31.2583 73.3317 32.89C74.1018 34.5217 75.1926 35.8233 76.6043 36.795C78.0342 37.7667 79.7209 38.2525 81.6643 38.2525C83.5709 38.2525 85.3218 37.7758 86.9167 36.8225C88.5301 35.8692 89.8226 34.5858 90.7943 32.9725C91.7659 31.3408 92.2518 29.5167 92.2518 27.5C92.2518 25.5383 91.7751 23.7508 90.8218 22.1375C89.8684 20.5058 88.5943 19.2042 86.9993 18.2325C85.4043 17.2608 83.6259 16.775 81.6643 16.775Z" fill="#FDFDFD"/>
<path d="M100.547 13.75H104.397V41.25H100.547V13.75ZM102.499 8.9375C101.876 8.9375 101.344 8.73583 100.904 8.3325C100.483 7.91083 100.272 7.38833 100.272 6.765C100.272 6.14167 100.483 5.62833 100.904 5.225C101.344 4.80333 101.876 4.5925 102.499 4.5925C103.104 4.5925 103.618 4.80333 104.039 5.225C104.479 5.62833 104.699 6.14167 104.699 6.765C104.699 7.38833 104.489 7.91083 104.067 8.3325C103.645 8.73583 103.123 8.9375 102.499 8.9375Z" fill="#FDFDFD"/>
<path d="M122.852 41.965C120.322 41.965 118.012 41.3142 115.922 40.0125C113.85 38.7108 112.191 36.9692 110.944 34.7875C109.716 32.5875 109.102 30.1583 109.102 27.5C109.102 25.4833 109.459 23.6042 110.174 21.8625C110.889 20.1025 111.87 18.5625 113.117 17.2425C114.382 15.9042 115.849 14.8592 117.517 14.1075C119.185 13.3558 120.964 12.98 122.852 12.98C124.887 12.98 126.757 13.3833 128.462 14.19C130.185 14.9967 131.661 16.1242 132.889 17.5725C134.136 19.0208 135.071 20.7167 135.694 22.66C136.336 24.6033 136.602 26.7025 136.492 28.9575H113.172C113.392 30.6992 113.942 32.2575 114.822 33.6325C115.72 35.0075 116.857 36.0983 118.232 36.905C119.625 37.6933 121.165 38.0967 122.852 38.115C124.685 38.115 126.335 37.6383 127.802 36.685C129.287 35.7317 130.479 34.4208 131.377 32.7525L135.282 33.66C134.182 36.0983 132.523 38.0967 130.304 39.655C128.086 41.195 125.602 41.965 122.852 41.965ZM113.062 25.85H132.614C132.486 24.145 131.964 22.5867 131.047 21.175C130.149 19.745 128.984 18.6083 127.554 17.765C126.124 16.9033 124.557 16.4725 122.852 16.4725C121.147 16.4725 119.589 16.8942 118.177 17.7375C116.765 18.5625 115.61 19.69 114.712 21.12C113.814 22.5317 113.264 24.1083 113.062 25.85Z" fill="#FDFDFD"/>
</g>
<g style="mix-blend-mode:color-dodge">
<circle cx="144.625" cy="38.8672" r="2.75" fill="#FDFDFD"/>
</g>
</svg>
