<svg width="92" height="34" viewBox="0 0 92 34" fill="none" xmlns="http://www.w3.org/2000/svg">
<g style="mix-blend-mode:color-dodge">
<path d="M15.2656 25.495H12.1921L4.39798 14.8142L2.37729 17.2424V25.495H0V1.72211H2.37729V13.5406L12.277 1.72211H15.3845L5.9602 12.9463L15.2656 25.495Z" fill="url(#paint0_linear_545_1749)"/>
<path d="M24.3526 25.9365C22.7904 25.9365 21.364 25.5346 20.0735 24.7309C18.7943 23.9271 17.7698 22.8517 17 21.5046C16.2415 20.1461 15.8623 18.6461 15.8623 17.0047C15.8623 15.7594 16.083 14.5991 16.5245 13.5237C16.966 12.4369 17.5717 11.486 18.3415 10.6709C19.1226 9.84452 20.0282 9.19925 21.0584 8.73512C22.0885 8.27098 23.1866 8.03891 24.3526 8.03891C25.6092 8.03891 26.7639 8.28796 27.8167 8.78606C28.8808 9.28416 29.7921 9.98036 30.5505 10.8747C31.3203 11.769 31.8977 12.8161 32.2826 14.0161C32.6788 15.2161 32.8429 16.5122 32.775 17.9047H18.3754C18.5113 18.9801 18.8509 19.9423 19.3943 20.7914C19.949 21.6404 20.6508 22.314 21.4999 22.8121C22.3602 23.2988 23.3111 23.5479 24.3526 23.5592C25.4847 23.5592 26.5035 23.2649 27.4091 22.6762C28.3261 22.0876 29.0619 21.2781 29.6166 20.248L32.0279 20.8083C31.3486 22.314 30.3241 23.5479 28.9544 24.5101C27.5846 25.461 26.0507 25.9365 24.3526 25.9365ZM18.3075 15.9858H30.3807C30.3015 14.933 29.9789 13.9708 29.4128 13.0991C28.8581 12.2161 28.1393 11.5143 27.2563 10.9935C26.3733 10.4615 25.4054 10.1954 24.3526 10.1954C23.2998 10.1954 22.3376 10.4558 21.4659 10.9766C20.5942 11.486 19.8811 12.1822 19.3263 13.0652C18.7716 13.9368 18.432 14.9104 18.3075 15.9858Z" fill="url(#paint1_linear_545_1749)"/>
<path d="M35.5532 25.495V0.0240479H37.9305V25.495H35.5532Z" fill="url(#paint2_linear_545_1749)"/>
<path d="M44.3977 33.9853H42.0204V8.51437H44.3977V11.6897C44.9864 10.6143 45.7901 9.74263 46.809 9.07473C47.8278 8.40682 49.0391 8.07287 50.4428 8.07287C51.6768 8.07287 52.8314 8.30494 53.9069 8.76908C54.9936 9.23321 55.9446 9.87848 56.7596 10.7049C57.5747 11.5199 58.2143 12.4652 58.6784 13.5406C59.1426 14.6161 59.3746 15.7708 59.3746 17.0047C59.3746 18.2386 59.1426 19.399 58.6784 20.4857C58.2143 21.5725 57.5747 22.5291 56.7596 23.3554C55.9446 24.1705 54.9936 24.8101 53.9069 25.2743C52.8314 25.7384 51.6768 25.9705 50.4428 25.9705C49.0391 25.9705 47.8278 25.6365 46.809 24.9686C45.7901 24.3007 44.9864 23.429 44.3977 22.3536V33.9853ZM50.4258 10.3822C49.2372 10.3822 48.2014 10.6822 47.3184 11.2822C46.4467 11.8709 45.7732 12.6633 45.2977 13.6595C44.8222 14.6557 44.5845 15.7708 44.5845 17.0047C44.5845 18.216 44.8166 19.3254 45.2807 20.3329C45.7562 21.3404 46.4297 22.1442 47.3014 22.7441C48.1844 23.3441 49.2259 23.6441 50.4258 23.6441C51.6032 23.6441 52.6843 23.3498 53.6692 22.7611C54.6653 22.1725 55.4634 21.38 56.0634 20.3838C56.6634 19.3763 56.9634 18.2499 56.9634 17.0047C56.9634 15.7934 56.6691 14.6897 56.0804 13.6935C55.4917 12.6859 54.705 11.8822 53.7201 11.2822C52.7352 10.6822 51.6371 10.3822 50.4258 10.3822Z" fill="url(#paint3_linear_545_1749)"/>
<path d="M62.0854 8.51437H64.4627V25.495H62.0854V8.51437ZM63.2911 5.54276C62.9062 5.54276 62.5779 5.41823 62.3062 5.16918C62.0458 4.90881 61.9156 4.58618 61.9156 4.20128C61.9156 3.81639 62.0458 3.49942 62.3062 3.25037C62.5779 2.99 62.9062 2.85981 63.2911 2.85981C63.6646 2.85981 63.9816 2.99 64.242 3.25037C64.5137 3.49942 64.6495 3.81639 64.6495 4.20128C64.6495 4.58618 64.5193 4.90881 64.259 5.16918C63.9986 5.41823 63.676 5.54276 63.2911 5.54276Z" fill="url(#paint4_linear_545_1749)"/>
<path d="M75.8583 25.9365C74.2961 25.9365 72.8697 25.5346 71.5792 24.7309C70.3 23.9271 69.2755 22.8517 68.5057 21.5046C67.7472 20.1461 67.368 18.6461 67.368 17.0047C67.368 15.7594 67.5888 14.5991 68.0303 13.5237C68.4717 12.4369 69.0774 11.486 69.8472 10.6709C70.6283 9.84452 71.5339 9.19925 72.5641 8.73512C73.5942 8.27098 74.6923 8.03891 75.8583 8.03891C77.1149 8.03891 78.2696 8.28796 79.3224 8.78606C80.3865 9.28416 81.2978 9.98036 82.0563 10.8747C82.826 11.769 83.4034 12.8161 83.7883 14.0161C84.1845 15.2161 84.3486 16.5122 84.2807 17.9047H69.8811C70.017 18.9801 70.3566 19.9423 70.9 20.7914C71.4547 21.6404 72.1565 22.314 73.0056 22.8121C73.8659 23.2988 74.8168 23.5479 75.8583 23.5592C76.9904 23.5592 78.0092 23.2649 78.9148 22.6762C79.8318 22.0876 80.5676 21.2781 81.1223 20.248L83.5336 20.8083C82.8543 22.314 81.8299 23.5479 80.4601 24.5101C79.0903 25.461 77.5564 25.9365 75.8583 25.9365ZM69.8132 15.9858H81.8865C81.8072 14.933 81.4846 13.9708 80.9186 13.0991C80.3639 12.2161 79.645 11.5143 78.762 10.9935C77.879 10.4615 76.9111 10.1954 75.8583 10.1954C74.8055 10.1954 73.8433 10.4558 72.9716 10.9766C72.0999 11.486 71.3868 12.1822 70.8321 13.0652C70.2774 13.9368 69.9377 14.9104 69.8132 15.9858Z" fill="url(#paint5_linear_545_1749)"/>
</g>
<g style="mix-blend-mode:color-dodge">
<circle cx="89.3035" cy="24.0234" r="1.69806" fill="url(#paint6_linear_545_1749)"/>
</g>
<defs>
<linearGradient id="paint0_linear_545_1749" x1="-2.05536" y1="22.7781" x2="111.102" y2="-18.8003" gradientUnits="userSpaceOnUse">
<stop stop-color="#1D0C33"/>
<stop offset="1" stop-color="#D283EA"/>
</linearGradient>
<linearGradient id="paint1_linear_545_1749" x1="-2.05536" y1="22.7781" x2="111.102" y2="-18.8003" gradientUnits="userSpaceOnUse">
<stop stop-color="#1D0C33"/>
<stop offset="1" stop-color="#D283EA"/>
</linearGradient>
<linearGradient id="paint2_linear_545_1749" x1="-2.05536" y1="22.7781" x2="111.102" y2="-18.8003" gradientUnits="userSpaceOnUse">
<stop stop-color="#1D0C33"/>
<stop offset="1" stop-color="#D283EA"/>
</linearGradient>
<linearGradient id="paint3_linear_545_1749" x1="-2.05536" y1="22.7781" x2="111.102" y2="-18.8003" gradientUnits="userSpaceOnUse">
<stop stop-color="#1D0C33"/>
<stop offset="1" stop-color="#D283EA"/>
</linearGradient>
<linearGradient id="paint4_linear_545_1749" x1="-2.05536" y1="22.7781" x2="111.102" y2="-18.8003" gradientUnits="userSpaceOnUse">
<stop stop-color="#1D0C33"/>
<stop offset="1" stop-color="#D283EA"/>
</linearGradient>
<linearGradient id="paint5_linear_545_1749" x1="-2.05536" y1="22.7781" x2="111.102" y2="-18.8003" gradientUnits="userSpaceOnUse">
<stop stop-color="#1D0C33"/>
<stop offset="1" stop-color="#D283EA"/>
</linearGradient>
<linearGradient id="paint6_linear_545_1749" x1="87.6055" y1="25.3127" x2="92.5443" y2="24.8049" gradientUnits="userSpaceOnUse">
<stop stop-color="#1D0C33"/>
<stop offset="1" stop-color="#D283EA"/>
</linearGradient>
</defs>
</svg>
