<svg width="20" height="20" viewBox="0 0 20 20" fill="none" xmlns="http://www.w3.org/2000/svg">
<path d="M19.9661 2.2199L16.3236 17.1363C16.1522 17.8388 15.3594 18.2007 14.7095 17.8671L10.1026 15.5041L7.92428 19.0451C7.33157 20.0103 5.83173 19.5916 5.83173 18.4632V14.5176C5.83173 14.2125 5.96022 13.9216 6.18166 13.7087L15.1595 5.19312C15.1523 5.08668 15.038 4.99449 14.9238 5.07242L4.21071 12.4809L0.611138 10.6359C-0.231547 10.203 -0.195837 8.98949 0.675384 8.61347L18.4237 0.928398C19.2735 0.559326 20.1879 1.31869 19.9664 2.21984L19.9661 2.2199Z" fill="url(#paint0_linear_388_2068)"/>
<defs>
<linearGradient id="paint0_linear_388_2068" x1="-3.00209e-07" y1="17.3261" x2="29.043" y2="14.1412" gradientUnits="userSpaceOnUse">
<stop stop-color="#1D0C33"/>
<stop offset="1" stop-color="#D283EA"/>
</linearGradient>
</defs>
</svg>
