<svg width="12" height="14" viewBox="0 0 12 14" fill="none" xmlns="http://www.w3.org/2000/svg">
<path d="M10.7103 9.4499C10.7103 11.9628 8.58884 13.9999 5.97186 13.9999C3.35488 13.9999 1.2334 11.9628 1.2334 9.4499C1.2334 6.93701 3.35488 4.8999 5.97186 4.8999C8.58884 4.8999 10.7103 6.93701 10.7103 9.4499Z" fill="url(#paint0_linear_701_1383)"/>
<g filter="url(#filter0_b_701_1383)">
<path d="M1.1875 6.28125C1.1875 3.72909 3.34213 1.66016 6 1.66016C8.65787 1.66016 10.8125 3.72909 10.8125 6.28125V6.94141H8.40625C8.2164 6.94141 8.0625 7.08919 8.0625 7.27148V11.2324C8.0625 11.4147 8.2164 11.5625 8.40625 11.5625H10.125C10.8844 11.5625 11.5 10.9714 11.5 10.2422V6.28125C11.5 3.3645 9.03757 1 6 1C2.96243 1 0.5 3.3645 0.5 6.28125V10.2422C0.5 10.9714 1.11561 11.5625 1.875 11.5625H3.59375C3.7836 11.5625 3.9375 11.4147 3.9375 11.2324V7.27148C3.9375 7.08919 3.7836 6.94141 3.59375 6.94141H1.1875V6.28125Z" fill="url(#paint1_linear_701_1383)" fill-opacity="0.3"/>
</g>
<g filter="url(#filter1_b_701_1383)">
<path fill-rule="evenodd" clip-rule="evenodd" d="M0.486328 6.28127C0.486328 3.35722 2.95492 0.986816 6.00008 0.986816C9.04524 0.986816 11.5138 3.35722 11.5138 6.28127V10.2422C11.5138 10.9787 10.8921 11.5757 10.1251 11.5757H8.40633C8.20889 11.5757 8.04883 11.422 8.04883 11.2324V7.2715C8.04883 7.08191 8.20889 6.92822 8.40633 6.92822H10.7988V6.28127C10.7988 3.7364 8.65035 1.67338 6.00008 1.67338C3.3498 1.67338 1.20133 3.7364 1.20133 6.28127V6.92822H3.59383C3.79127 6.92822 3.95133 7.08192 3.95133 7.2715V11.2324C3.95133 11.422 3.79127 11.5757 3.59383 11.5757H1.87508C1.10809 11.5757 0.486328 10.9787 0.486328 10.2422V6.28127ZM6.00008 1.01322C2.97011 1.01322 0.513828 3.37181 0.513828 6.28127V10.2422C0.513828 10.9641 1.12328 11.5493 1.87508 11.5493H3.59383C3.77608 11.5493 3.92383 11.4074 3.92383 11.2324V7.2715C3.92383 7.0965 3.77608 6.95463 3.59383 6.95463H1.17383V6.28127C1.17383 3.72182 3.33461 1.64697 6.00008 1.64697C8.66554 1.64697 10.8263 3.72182 10.8263 6.28127V6.95463H8.40633C8.22407 6.95463 8.07633 7.0965 8.07633 7.2715V11.2324C8.07633 11.4074 8.22407 11.5493 8.40633 11.5493H10.1251C10.8769 11.5493 11.4863 10.9641 11.4863 10.2422V6.28127C11.4863 3.37181 9.03005 1.01322 6.00008 1.01322Z" fill="url(#paint2_linear_701_1383)" fill-opacity="0.3"/>
</g>
<ellipse cx="3.85478" cy="8.65791" rx="0.825" ry="0.792187" fill="white"/>
<ellipse cx="8.09014" cy="8.65791" rx="0.825" ry="0.792187" fill="white"/>
<defs>
<filter id="filter0_b_701_1383" x="-0.5" y="0" width="13" height="12.5625" filterUnits="userSpaceOnUse" color-interpolation-filters="sRGB">
<feFlood flood-opacity="0" result="BackgroundImageFix"/>
<feGaussianBlur in="BackgroundImageFix" stdDeviation="0.5"/>
<feComposite in2="SourceAlpha" operator="in" result="effect1_backgroundBlur_701_1383"/>
<feBlend mode="normal" in="SourceGraphic" in2="effect1_backgroundBlur_701_1383" result="shape"/>
</filter>
<filter id="filter1_b_701_1383" x="-29.5137" y="-29.0132" width="71.0273" height="70.5889" filterUnits="userSpaceOnUse" color-interpolation-filters="sRGB">
<feFlood flood-opacity="0" result="BackgroundImageFix"/>
<feGaussianBlur in="BackgroundImageFix" stdDeviation="15"/>
<feComposite in2="SourceAlpha" operator="in" result="effect1_backgroundBlur_701_1383"/>
<feBlend mode="normal" in="SourceGraphic" in2="effect1_backgroundBlur_701_1383" result="shape"/>
</filter>
<linearGradient id="paint0_linear_701_1383" x1="1.2334" y1="13.9999" x2="10.7103" y2="13.9999" gradientUnits="userSpaceOnUse">
<stop stop-color="#FBC2EB"/>
<stop offset="1" stop-color="#A18CD1"/>
</linearGradient>
<linearGradient id="paint1_linear_701_1383" x1="0.5" y1="11.5625" x2="11.5" y2="11.5625" gradientUnits="userSpaceOnUse">
<stop stop-color="#E100FF"/>
<stop offset="1" stop-color="#7F00FF"/>
</linearGradient>
<linearGradient id="paint2_linear_701_1383" x1="1.66639" y1="1.96377" x2="13.3601" y2="8.2694" gradientUnits="userSpaceOnUse">
<stop stop-color="#5A81FF" stop-opacity="0.9"/>
<stop offset="0.447036" stop-color="#567DFF" stop-opacity="0.955296"/>
<stop offset="1" stop-color="#4E78FF" stop-opacity="0.9"/>
</linearGradient>
</defs>
</svg>
