<svg width="330" height="502" viewBox="0 0 330 502" fill="none" xmlns="http://www.w3.org/2000/svg">
<g filter="url(#filter0_b_388_2258)">
<rect width="330" height="502" rx="21" fill="#2E2E33" fill-opacity="0.5"/>
<rect x="0.5" y="0.5" width="329" height="501" rx="20.5" stroke="url(#paint0_linear_388_2258)"/>
<rect x="0.5" y="0.5" width="329" height="501" rx="20.5" stroke="url(#paint1_radial_388_2258)"/>
</g>
<path d="M19.821 38.333V27.165H24.269C25.2717 27.165 26.0397 27.453 26.573 28.029C27.117 28.5943 27.389 29.373 27.389 30.365C27.389 31.357 27.117 32.141 26.573 32.717C26.0397 33.2823 25.2717 33.565 24.269 33.565H21.165V38.333H19.821ZM21.165 32.381H24.269C24.8023 32.381 25.213 32.2423 25.501 31.965C25.7997 31.6877 25.949 31.293 25.949 30.781V29.949C25.949 29.437 25.7997 29.0423 25.501 28.765C25.213 28.4877 24.8023 28.349 24.269 28.349H21.165V32.381ZM30.4761 28.141C30.1988 28.141 29.9961 28.077 29.8681 27.949C29.7508 27.8103 29.6921 27.6343 29.6921 27.421V27.213C29.6921 26.9997 29.7508 26.829 29.8681 26.701C29.9961 26.5623 30.1988 26.493 30.4761 26.493C30.7535 26.493 30.9508 26.5623 31.0681 26.701C31.1961 26.829 31.2601 26.9997 31.2601 27.213V27.421C31.2601 27.6343 31.1961 27.8103 31.0681 27.949C30.9508 28.077 30.7535 28.141 30.4761 28.141ZM29.8361 30.077H31.1161V38.333H29.8361V30.077ZM37.3801 38.525C36.8148 38.525 36.3028 38.4237 35.8441 38.221C35.3961 38.0183 35.0068 37.7303 34.6761 37.357C34.3561 36.973 34.1055 36.5197 33.9241 35.997C33.7535 35.4637 33.6681 34.8663 33.6681 34.205C33.6681 33.5543 33.7535 32.9623 33.9241 32.429C34.1055 31.8957 34.3561 31.4423 34.6761 31.069C35.0068 30.685 35.3961 30.3917 35.8441 30.189C36.3028 29.9863 36.8148 29.885 37.3801 29.885C37.9348 29.885 38.4308 29.9863 38.8681 30.189C39.3055 30.3917 39.6788 30.6743 39.9881 31.037C40.2975 31.389 40.5321 31.8103 40.6921 32.301C40.8628 32.7917 40.9481 33.3303 40.9481 33.917V34.525H35.0121V34.909C35.0121 35.261 35.0655 35.5917 35.1721 35.901C35.2895 36.1997 35.4495 36.461 35.6521 36.685C35.8655 36.909 36.1215 37.085 36.4201 37.213C36.7295 37.341 37.0761 37.405 37.4601 37.405C37.9828 37.405 38.4361 37.2823 38.8201 37.037C39.2148 36.7917 39.5188 36.4397 39.7321 35.981L40.6441 36.637C40.3775 37.2023 39.9615 37.661 39.3961 38.013C38.8308 38.3543 38.1588 38.525 37.3801 38.525ZM37.3801 30.957C37.0281 30.957 36.7081 31.021 36.4201 31.149C36.1321 31.2663 35.8815 31.437 35.6681 31.661C35.4655 31.885 35.3055 32.1517 35.1881 32.461C35.0708 32.7597 35.0121 33.0903 35.0121 33.453V33.565H39.5721V33.389C39.5721 32.653 39.3695 32.0663 38.9641 31.629C38.5695 31.181 38.0415 30.957 37.3801 30.957ZM51.7826 38.525C50.364 38.525 49.26 38.045 48.4706 37.085C47.6813 36.1143 47.2866 34.6903 47.2866 32.813C47.2866 30.9357 47.6813 29.4957 48.4706 28.493C49.26 27.4797 50.364 26.973 51.7826 26.973C52.7213 26.973 53.5053 27.1863 54.1346 27.613C54.7746 28.0397 55.2706 28.6423 55.6226 29.421L54.5346 30.077C54.3106 29.501 53.9693 29.0423 53.5106 28.701C53.052 28.349 52.476 28.173 51.7826 28.173C51.3026 28.173 50.8706 28.2637 50.4866 28.445C50.1133 28.6263 49.7933 28.8877 49.5266 29.229C49.2706 29.5597 49.0733 29.9597 48.9346 30.429C48.796 30.8877 48.7266 31.405 48.7266 31.981V33.645C48.7266 34.797 48.9933 35.6983 49.5266 36.349C50.06 36.9997 50.812 37.325 51.7826 37.325C52.4973 37.325 53.0946 37.1437 53.5746 36.781C54.0546 36.4077 54.4066 35.917 54.6306 35.309L55.7026 35.981C55.3506 36.7703 54.844 37.3943 54.1826 37.853C53.5213 38.301 52.7213 38.525 51.7826 38.525ZM58.0961 26.493H59.3761V31.421H59.4401C59.6428 30.9517 59.9255 30.5783 60.2881 30.301C60.6615 30.0237 61.1575 29.885 61.7761 29.885C62.6295 29.885 63.3015 30.1623 63.7921 30.717C64.2935 31.261 64.5441 32.0343 64.5441 33.037V38.333H63.2641V33.261C63.2641 31.7783 62.6401 31.037 61.3921 31.037C61.1361 31.037 60.8855 31.069 60.6401 31.133C60.4055 31.197 60.1921 31.293 60.0001 31.421C59.8081 31.549 59.6535 31.7143 59.5361 31.917C59.4295 32.109 59.3761 32.3383 59.3761 32.605V38.333H58.0961V26.493ZM73.6299 38.333C73.1499 38.333 72.8032 38.205 72.5899 37.949C72.3872 37.693 72.2592 37.373 72.2059 36.989H72.1259C71.9445 37.501 71.6459 37.885 71.2299 38.141C70.8139 38.397 70.3179 38.525 69.7419 38.525C68.8672 38.525 68.1845 38.301 67.6939 37.853C67.2139 37.405 66.9739 36.797 66.9739 36.029C66.9739 35.2503 67.2565 34.653 67.8219 34.237C68.3979 33.821 69.2885 33.613 70.4939 33.613H72.1259V32.797C72.1259 32.2103 71.9659 31.7623 71.6459 31.453C71.3259 31.1437 70.8352 30.989 70.1739 30.989C69.6725 30.989 69.2512 31.101 68.9099 31.325C68.5792 31.549 68.3019 31.8477 68.0779 32.221L67.3099 31.501C67.5339 31.053 67.8912 30.6743 68.3819 30.365C68.8725 30.045 69.4912 29.885 70.2379 29.885C71.2405 29.885 72.0192 30.1303 72.5739 30.621C73.1285 31.1117 73.4059 31.7943 73.4059 32.669V37.213H74.3499V38.333H73.6299ZM69.9499 37.437C70.2699 37.437 70.5632 37.3997 70.8299 37.325C71.0965 37.2503 71.3259 37.1437 71.5179 37.005C71.7099 36.8663 71.8592 36.7063 71.9659 36.525C72.0725 36.3437 72.1259 36.1463 72.1259 35.933V34.573H70.4299C69.6939 34.573 69.1552 34.6797 68.8139 34.893C68.4832 35.1063 68.3179 35.4157 68.3179 35.821V36.157C68.3179 36.5623 68.4619 36.877 68.7499 37.101C69.0485 37.325 69.4485 37.437 69.9499 37.437ZM76.6168 38.333V30.077H77.8968V31.597H77.9768C78.1261 31.2023 78.3928 30.8503 78.7768 30.541C79.1608 30.2317 79.6888 30.077 80.3608 30.077H80.8568V31.357H80.1048C79.4114 31.357 78.8674 31.4903 78.4728 31.757C78.0888 32.013 77.8968 32.3383 77.8968 32.733V38.333H76.6168ZM84.8183 38.333C84.3703 38.333 84.0289 38.2103 83.7943 37.965C83.5703 37.709 83.4583 37.3783 83.4583 36.973V31.197H82.0983V30.077H82.8663C83.1436 30.077 83.3303 30.0237 83.4263 29.917C83.5329 29.7997 83.5863 29.6023 83.5863 29.325V27.789H84.7383V30.077H86.5463V31.197H84.7383V37.213H86.4183V38.333H84.8183Z" fill="white"/>
<path d="M19.635 64.833V55.061H23.527C24.4043 55.061 25.0763 55.313 25.543 55.817C26.019 56.3117 26.257 56.993 26.257 57.861C26.257 58.729 26.019 59.415 25.543 59.919C25.0763 60.4137 24.4043 60.661 23.527 60.661H20.811V64.833H19.635ZM20.811 59.625H23.527C23.9937 59.625 24.353 59.5037 24.605 59.261C24.8663 59.0183 24.997 58.673 24.997 58.225V57.497C24.997 57.049 24.8663 56.7037 24.605 56.461C24.353 56.2183 23.9937 56.097 23.527 56.097H20.811V59.625ZM30.7198 65.001C30.2345 65.001 29.7911 64.9123 29.3898 64.735C28.9885 64.5577 28.6431 64.3057 28.3538 63.979C28.0738 63.643 27.8545 63.2463 27.6958 62.789C27.5371 62.3223 27.4578 61.7997 27.4578 61.221C27.4578 60.6517 27.5371 60.1337 27.6958 59.667C27.8545 59.2003 28.0738 58.8037 28.3538 58.477C28.6431 58.141 28.9885 57.8843 29.3898 57.707C29.7911 57.5297 30.2345 57.441 30.7198 57.441C31.2051 57.441 31.6438 57.5297 32.0358 57.707C32.4371 57.8843 32.7825 58.141 33.0718 58.477C33.3611 58.8037 33.5851 59.2003 33.7438 59.667C33.9025 60.1337 33.9818 60.6517 33.9818 61.221C33.9818 61.7997 33.9025 62.3223 33.7438 62.789C33.5851 63.2463 33.3611 63.643 33.0718 63.979C32.7825 64.3057 32.4371 64.5577 32.0358 64.735C31.6438 64.9123 31.2051 65.001 30.7198 65.001ZM30.7198 64.007C31.3265 64.007 31.8211 63.8203 32.2038 63.447C32.5865 63.0737 32.7778 62.5043 32.7778 61.739V60.703C32.7778 59.9377 32.5865 59.3683 32.2038 58.995C31.8211 58.6217 31.3265 58.435 30.7198 58.435C30.1131 58.435 29.6185 58.6217 29.2358 58.995C28.8531 59.3683 28.6618 59.9377 28.6618 60.703V61.739C28.6618 62.5043 28.8531 63.0737 29.2358 63.447C29.6185 63.8203 30.1131 64.007 30.7198 64.007ZM36.0738 57.609H37.1938V58.785H37.2498C37.4365 58.3277 37.7071 57.9917 38.0618 57.777C38.4258 57.553 38.8598 57.441 39.3638 57.441C39.8118 57.441 40.2178 57.5297 40.5818 57.707C40.9458 57.8843 41.2538 58.1363 41.5058 58.463C41.7671 58.7897 41.9631 59.1863 42.0938 59.653C42.2338 60.1197 42.3038 60.6423 42.3038 61.221C42.3038 61.7997 42.2338 62.3223 42.0938 62.789C41.9631 63.2557 41.7671 63.6523 41.5058 63.979C41.2538 64.3057 40.9458 64.5577 40.5818 64.735C40.2178 64.9123 39.8118 65.001 39.3638 65.001C38.3838 65.001 37.6791 64.553 37.2498 63.657H37.1938V67.633H36.0738V57.609ZM39.0558 63.993C39.6905 63.993 40.1898 63.797 40.5538 63.405C40.9178 63.0037 41.0998 62.481 41.0998 61.837V60.605C41.0998 59.961 40.9178 59.443 40.5538 59.051C40.1898 58.6497 39.6905 58.449 39.0558 58.449C38.8038 58.449 38.5611 58.4863 38.3278 58.561C38.1038 58.6263 37.9078 58.7197 37.7398 58.841C37.5718 58.9623 37.4365 59.1117 37.3338 59.289C37.2405 59.457 37.1938 59.639 37.1938 59.835V62.523C37.1938 62.7563 37.2405 62.9663 37.3338 63.153C37.4365 63.3303 37.5718 63.4843 37.7398 63.615C37.9078 63.7363 38.1038 63.8297 38.3278 63.895C38.5611 63.9603 38.8038 63.993 39.0558 63.993ZM48.8969 63.657H48.8409C48.7662 63.825 48.6729 63.993 48.5609 64.161C48.4582 64.3197 48.3275 64.4643 48.1689 64.595C48.0102 64.7163 47.8189 64.8143 47.5949 64.889C47.3709 64.9637 47.1095 65.001 46.8109 65.001C46.0642 65.001 45.4715 64.763 45.0329 64.287C44.5942 63.8017 44.3749 63.1203 44.3749 62.243V57.609H45.4949V62.047C45.4949 63.3443 46.0455 63.993 47.1469 63.993C47.3709 63.993 47.5855 63.965 47.7909 63.909C48.0055 63.853 48.1922 63.769 48.3509 63.657C48.5189 63.545 48.6495 63.405 48.7429 63.237C48.8455 63.0597 48.8969 62.8497 48.8969 62.607V57.609H50.0169V64.833H48.8969V63.657ZM53.8419 64.833C53.4499 64.833 53.1512 64.7257 52.9459 64.511C52.7499 64.287 52.6519 64.007 52.6519 63.671V54.473H53.7719V63.853H54.8359V64.833H53.8419ZM61.9664 64.833C61.5464 64.833 61.243 64.721 61.0564 64.497C60.879 64.273 60.767 63.993 60.7204 63.657H60.6504C60.4917 64.105 60.2304 64.441 59.8664 64.665C59.5024 64.889 59.0684 65.001 58.5644 65.001C57.799 65.001 57.2017 64.805 56.7724 64.413C56.3524 64.021 56.1424 63.489 56.1424 62.817C56.1424 62.1357 56.3897 61.613 56.8844 61.249C57.3884 60.885 58.1677 60.703 59.2224 60.703H60.6504V59.989C60.6504 59.4757 60.5104 59.0837 60.2304 58.813C59.9504 58.5423 59.521 58.407 58.9424 58.407C58.5037 58.407 58.135 58.505 57.8364 58.701C57.547 58.897 57.3044 59.1583 57.1084 59.485L56.4364 58.855C56.6324 58.463 56.945 58.1317 57.3744 57.861C57.8037 57.581 58.345 57.441 58.9984 57.441C59.8757 57.441 60.557 57.6557 61.0424 58.085C61.5277 58.5143 61.7704 59.1117 61.7704 59.877V63.853H62.5964V64.833H61.9664ZM58.7464 64.049C59.0264 64.049 59.283 64.0163 59.5164 63.951C59.7497 63.8857 59.9504 63.7923 60.1184 63.671C60.2864 63.5497 60.417 63.4097 60.5104 63.251C60.6037 63.0923 60.6504 62.9197 60.6504 62.733V61.543H59.1664C58.5224 61.543 58.051 61.6363 57.7524 61.823C57.463 62.0097 57.3184 62.2803 57.3184 62.635V62.929C57.3184 63.2837 57.4444 63.559 57.6964 63.755C57.9577 63.951 58.3077 64.049 58.7464 64.049ZM64.4449 64.833V57.609H65.5649V58.939H65.6349C65.7655 58.5937 65.9989 58.2857 66.3349 58.015C66.6709 57.7443 67.1329 57.609 67.7209 57.609H68.1549V58.729H67.4969C66.8902 58.729 66.4142 58.8457 66.0689 59.079C65.7329 59.303 65.5649 59.5877 65.5649 59.933V64.833H64.4449ZM74.6121 55.061V61.109C74.6121 62.0423 74.7848 62.7517 75.1301 63.237C75.4754 63.713 76.0821 63.951 76.9501 63.951C77.8181 63.951 78.4248 63.713 78.7701 63.237C79.1154 62.7517 79.2881 62.0423 79.2881 61.109V55.061H80.4641V60.829C80.4641 61.5383 80.3988 62.1543 80.2681 62.677C80.1468 63.1997 79.9461 63.6337 79.6661 63.979C79.3861 64.3243 79.0174 64.581 78.5601 64.749C78.1121 64.917 77.5614 65.001 76.9081 65.001C76.2548 65.001 75.7041 64.917 75.2561 64.749C74.8174 64.581 74.4628 64.3243 74.1921 63.979C73.9214 63.6337 73.7254 63.1997 73.6041 62.677C73.4921 62.1543 73.4361 61.5383 73.4361 60.829V55.061H74.6121ZM90.1884 64.833H88.7744L86.2124 60.731H86.1844L83.6224 64.833H82.2784L85.4704 59.863L82.3624 55.061H83.7764L86.2264 58.953H86.2544L88.7604 55.061H90.1044L86.9684 59.821L90.1884 64.833ZM97.1229 64.833C96.7309 64.833 96.4322 64.7257 96.2269 64.511C96.0309 64.287 95.9329 63.9977 95.9329 63.643V58.589H94.7429V57.609H95.4149C95.6576 57.609 95.8209 57.5623 95.9049 57.469C95.9982 57.3663 96.0449 57.1937 96.0449 56.951V55.607H97.0529V57.609H98.6349V58.589H97.0529V63.853H98.5229V64.833H97.1229ZM103.36 65.001C102.875 65.001 102.432 64.9123 102.03 64.735C101.629 64.5577 101.284 64.3057 100.994 63.979C100.714 63.643 100.495 63.2463 100.336 62.789C100.178 62.3223 100.098 61.7997 100.098 61.221C100.098 60.6517 100.178 60.1337 100.336 59.667C100.495 59.2003 100.714 58.8037 100.994 58.477C101.284 58.141 101.629 57.8843 102.03 57.707C102.432 57.5297 102.875 57.441 103.36 57.441C103.846 57.441 104.284 57.5297 104.676 57.707C105.078 57.8843 105.423 58.141 105.712 58.477C106.002 58.8037 106.226 59.2003 106.384 59.667C106.543 60.1337 106.622 60.6517 106.622 61.221C106.622 61.7997 106.543 62.3223 106.384 62.789C106.226 63.2463 106.002 63.643 105.712 63.979C105.423 64.3057 105.078 64.5577 104.676 64.735C104.284 64.9123 103.846 65.001 103.36 65.001ZM103.36 64.007C103.967 64.007 104.462 63.8203 104.844 63.447C105.227 63.0737 105.418 62.5043 105.418 61.739V60.703C105.418 59.9377 105.227 59.3683 104.844 58.995C104.462 58.6217 103.967 58.435 103.36 58.435C102.754 58.435 102.259 58.6217 101.876 58.995C101.494 59.3683 101.302 59.9377 101.302 60.703V61.739C101.302 62.5043 101.494 63.0737 101.876 63.447C102.259 63.8203 102.754 64.007 103.36 64.007ZM111.444 65.001C110.959 65.001 110.516 64.9123 110.114 64.735C109.713 64.5577 109.368 64.3057 109.078 63.979C108.798 63.643 108.579 63.2463 108.42 62.789C108.262 62.3223 108.182 61.7997 108.182 61.221C108.182 60.6517 108.262 60.1337 108.42 59.667C108.579 59.2003 108.798 58.8037 109.078 58.477C109.368 58.141 109.713 57.8843 110.114 57.707C110.516 57.5297 110.959 57.441 111.444 57.441C111.93 57.441 112.368 57.5297 112.76 57.707C113.162 57.8843 113.507 58.141 113.796 58.477C114.086 58.8037 114.31 59.2003 114.468 59.667C114.627 60.1337 114.706 60.6517 114.706 61.221C114.706 61.7997 114.627 62.3223 114.468 62.789C114.31 63.2463 114.086 63.643 113.796 63.979C113.507 64.3057 113.162 64.5577 112.76 64.735C112.368 64.9123 111.93 65.001 111.444 65.001ZM111.444 64.007C112.051 64.007 112.546 63.8203 112.928 63.447C113.311 63.0737 113.502 62.5043 113.502 61.739V60.703C113.502 59.9377 113.311 59.3683 112.928 58.995C112.546 58.6217 112.051 58.435 111.444 58.435C110.838 58.435 110.343 58.6217 109.96 58.995C109.578 59.3683 109.386 59.9377 109.386 60.703V61.739C109.386 62.5043 109.578 63.0737 109.96 63.447C110.343 63.8203 110.838 64.007 111.444 64.007ZM117.988 64.833C117.596 64.833 117.298 64.7257 117.092 64.511C116.896 64.287 116.798 64.007 116.798 63.671V54.473H117.918V63.853H118.982V64.833H117.988ZM123.033 65.001C122.361 65.001 121.796 64.875 121.339 64.623C120.891 64.3617 120.504 64.0163 120.177 63.587L120.975 62.943C121.255 63.2977 121.568 63.573 121.913 63.769C122.258 63.9557 122.66 64.049 123.117 64.049C123.593 64.049 123.962 63.9463 124.223 63.741C124.494 63.5357 124.629 63.2463 124.629 62.873C124.629 62.593 124.536 62.355 124.349 62.159C124.172 61.9537 123.845 61.8137 123.369 61.739L122.795 61.655C122.459 61.6083 122.151 61.5383 121.871 61.445C121.591 61.3423 121.344 61.2117 121.129 61.053C120.924 60.885 120.76 60.6797 120.639 60.437C120.527 60.1943 120.471 59.905 120.471 59.569C120.471 59.2143 120.536 58.9063 120.667 58.645C120.798 58.3743 120.975 58.1503 121.199 57.973C121.432 57.7957 121.708 57.665 122.025 57.581C122.342 57.4877 122.683 57.441 123.047 57.441C123.635 57.441 124.125 57.5437 124.517 57.749C124.918 57.9543 125.268 58.239 125.567 58.603L124.825 59.275C124.666 59.051 124.433 58.8503 124.125 58.673C123.817 58.4863 123.43 58.393 122.963 58.393C122.496 58.393 122.142 58.4957 121.899 58.701C121.666 58.897 121.549 59.1677 121.549 59.513C121.549 59.8677 121.666 60.1243 121.899 60.283C122.142 60.4417 122.487 60.5583 122.935 60.633L123.495 60.717C124.298 60.8383 124.867 61.0717 125.203 61.417C125.539 61.753 125.707 62.1963 125.707 62.747C125.707 63.447 125.469 63.9977 124.993 64.399C124.517 64.8003 123.864 65.001 123.033 65.001Z" fill="#94A3B3"/>
<g opacity="0.4">
<g opacity="0.8">
<rect x="57.333" y="448.875" width="12" height="12" rx="6" fill="#9F7DE1"/>
</g>
</g>
<g opacity="0.8">
<rect x="113.333" y="448.875" width="12" height="12" rx="6" fill="#9F7DE1"/>
</g>
<rect x="169.333" y="448.875" width="12" height="12" rx="6" fill="white"/>
<path d="M173.401 478.019C172.337 478.019 171.509 477.659 170.917 476.939C170.325 476.211 170.029 475.143 170.029 473.735C170.029 472.327 170.325 471.247 170.917 470.495C171.509 469.735 172.337 469.355 173.401 469.355C174.105 469.355 174.693 469.515 175.165 469.835C175.645 470.155 176.017 470.607 176.281 471.191L175.465 471.683C175.297 471.251 175.041 470.907 174.697 470.651C174.353 470.387 173.921 470.255 173.401 470.255C173.041 470.255 172.717 470.323 172.429 470.459C172.149 470.595 171.909 470.791 171.709 471.047C171.517 471.295 171.369 471.595 171.265 471.947C171.161 472.291 171.109 472.679 171.109 473.111V474.359C171.109 475.223 171.309 475.899 171.709 476.387C172.109 476.875 172.673 477.119 173.401 477.119C173.937 477.119 174.385 476.983 174.745 476.711C175.105 476.431 175.369 476.063 175.537 475.607L176.341 476.111C176.077 476.703 175.697 477.171 175.201 477.515C174.705 477.851 174.105 478.019 173.401 478.019ZM180.546 478.019C180.13 478.019 179.75 477.943 179.406 477.791C179.062 477.639 178.766 477.423 178.518 477.143C178.278 476.855 178.09 476.515 177.954 476.123C177.818 475.723 177.75 475.275 177.75 474.779C177.75 474.291 177.818 473.847 177.954 473.447C178.09 473.047 178.278 472.707 178.518 472.427C178.766 472.139 179.062 471.919 179.406 471.767C179.75 471.615 180.13 471.539 180.546 471.539C180.962 471.539 181.338 471.615 181.674 471.767C182.018 471.919 182.314 472.139 182.562 472.427C182.81 472.707 183.002 473.047 183.138 473.447C183.274 473.847 183.342 474.291 183.342 474.779C183.342 475.275 183.274 475.723 183.138 476.123C183.002 476.515 182.81 476.855 182.562 477.143C182.314 477.423 182.018 477.639 181.674 477.791C181.338 477.943 180.962 478.019 180.546 478.019ZM180.546 477.167C181.066 477.167 181.49 477.007 181.818 476.687C182.146 476.367 182.31 475.879 182.31 475.223V474.335C182.31 473.679 182.146 473.191 181.818 472.871C181.49 472.551 181.066 472.391 180.546 472.391C180.026 472.391 179.602 472.551 179.274 472.871C178.946 473.191 178.782 473.679 178.782 474.335V475.223C178.782 475.879 178.946 476.367 179.274 476.687C179.602 477.007 180.026 477.167 180.546 477.167ZM186.341 477.875C186.005 477.875 185.749 477.783 185.573 477.599C185.405 477.407 185.321 477.167 185.321 476.879V468.995H186.281V477.035H187.193V477.875H186.341ZM191.331 478.019C190.915 478.019 190.535 477.943 190.191 477.791C189.847 477.639 189.551 477.423 189.303 477.143C189.063 476.855 188.875 476.515 188.739 476.123C188.603 475.723 188.535 475.275 188.535 474.779C188.535 474.291 188.603 473.847 188.739 473.447C188.875 473.047 189.063 472.707 189.303 472.427C189.551 472.139 189.847 471.919 190.191 471.767C190.535 471.615 190.915 471.539 191.331 471.539C191.747 471.539 192.123 471.615 192.459 471.767C192.803 471.919 193.099 472.139 193.347 472.427C193.595 472.707 193.787 473.047 193.923 473.447C194.059 473.847 194.127 474.291 194.127 474.779C194.127 475.275 194.059 475.723 193.923 476.123C193.787 476.515 193.595 476.855 193.347 477.143C193.099 477.423 192.803 477.639 192.459 477.791C192.123 477.943 191.747 478.019 191.331 478.019ZM191.331 477.167C191.851 477.167 192.275 477.007 192.603 476.687C192.931 476.367 193.095 475.879 193.095 475.223V474.335C193.095 473.679 192.931 473.191 192.603 472.871C192.275 472.551 191.851 472.391 191.331 472.391C190.811 472.391 190.387 472.551 190.059 472.871C189.731 473.191 189.567 473.679 189.567 474.335V475.223C189.567 475.879 189.731 476.367 190.059 476.687C190.387 477.007 190.811 477.167 191.331 477.167ZM196.105 477.875V471.683H197.065V472.823H197.125C197.237 472.527 197.437 472.263 197.725 472.031C198.013 471.799 198.409 471.683 198.913 471.683H199.285V472.643H198.721C198.201 472.643 197.793 472.743 197.497 472.943C197.209 473.135 197.065 473.379 197.065 473.675V477.875H196.105ZM203.024 473.051C203.592 473.051 204.016 472.923 204.296 472.667C204.584 472.403 204.728 472.067 204.728 471.659V471.575C204.728 471.135 204.588 470.807 204.308 470.591C204.036 470.367 203.676 470.255 203.228 470.255C202.796 470.255 202.444 470.351 202.172 470.543C201.9 470.727 201.676 470.979 201.5 471.299L200.756 470.723C200.86 470.555 200.984 470.391 201.128 470.231C201.28 470.063 201.456 469.915 201.656 469.787C201.856 469.659 202.088 469.555 202.352 469.475C202.616 469.395 202.916 469.355 203.252 469.355C203.604 469.355 203.936 469.403 204.248 469.499C204.56 469.587 204.828 469.723 205.052 469.907C205.284 470.083 205.464 470.303 205.592 470.567C205.728 470.831 205.796 471.131 205.796 471.467C205.796 471.739 205.752 471.983 205.664 472.199C205.584 472.415 205.472 472.603 205.328 472.763C205.184 472.923 205.012 473.059 204.812 473.171C204.62 473.283 204.412 473.367 204.188 473.423V473.471C204.412 473.519 204.628 473.599 204.836 473.711C205.052 473.815 205.24 473.955 205.4 474.131C205.568 474.299 205.7 474.507 205.796 474.755C205.9 474.995 205.952 475.271 205.952 475.583C205.952 475.943 205.884 476.275 205.748 476.579C205.612 476.875 205.42 477.131 205.172 477.347C204.924 477.555 204.624 477.719 204.272 477.839C203.92 477.959 203.532 478.019 203.108 478.019C202.748 478.019 202.428 477.979 202.148 477.899C201.868 477.819 201.62 477.711 201.404 477.575C201.188 477.439 200.996 477.287 200.828 477.119C200.668 476.951 200.524 476.775 200.396 476.591L201.152 476.015C201.256 476.183 201.368 476.335 201.488 476.471C201.616 476.607 201.756 476.723 201.908 476.819C202.06 476.915 202.232 476.991 202.424 477.047C202.616 477.095 202.84 477.119 203.096 477.119C203.688 477.119 204.136 476.987 204.44 476.723C204.744 476.451 204.896 476.067 204.896 475.571V475.475C204.896 474.979 204.744 474.599 204.44 474.335C204.136 474.063 203.688 473.927 203.096 473.927H202.112V473.051H203.024Z" fill="white"/>
<g opacity="0.16">
<rect x="225.333" y="448.875" width="12" height="12" rx="6" fill="white"/>
</g>
<path d="M229.401 478.019C228.337 478.019 227.509 477.659 226.917 476.939C226.325 476.211 226.029 475.143 226.029 473.735C226.029 472.327 226.325 471.247 226.917 470.495C227.509 469.735 228.337 469.355 229.401 469.355C230.105 469.355 230.693 469.515 231.165 469.835C231.645 470.155 232.017 470.607 232.281 471.191L231.465 471.683C231.297 471.251 231.041 470.907 230.697 470.651C230.353 470.387 229.921 470.255 229.401 470.255C229.041 470.255 228.717 470.323 228.429 470.459C228.149 470.595 227.909 470.791 227.709 471.047C227.517 471.295 227.369 471.595 227.265 471.947C227.161 472.291 227.109 472.679 227.109 473.111V474.359C227.109 475.223 227.309 475.899 227.709 476.387C228.109 476.875 228.673 477.119 229.401 477.119C229.937 477.119 230.385 476.983 230.745 476.711C231.105 476.431 231.369 476.063 231.537 475.607L232.341 476.111C232.077 476.703 231.697 477.171 231.201 477.515C230.705 477.851 230.105 478.019 229.401 478.019ZM236.546 478.019C236.13 478.019 235.75 477.943 235.406 477.791C235.062 477.639 234.766 477.423 234.518 477.143C234.278 476.855 234.09 476.515 233.954 476.123C233.818 475.723 233.75 475.275 233.75 474.779C233.75 474.291 233.818 473.847 233.954 473.447C234.09 473.047 234.278 472.707 234.518 472.427C234.766 472.139 235.062 471.919 235.406 471.767C235.75 471.615 236.13 471.539 236.546 471.539C236.962 471.539 237.338 471.615 237.674 471.767C238.018 471.919 238.314 472.139 238.562 472.427C238.81 472.707 239.002 473.047 239.138 473.447C239.274 473.847 239.342 474.291 239.342 474.779C239.342 475.275 239.274 475.723 239.138 476.123C239.002 476.515 238.81 476.855 238.562 477.143C238.314 477.423 238.018 477.639 237.674 477.791C237.338 477.943 236.962 478.019 236.546 478.019ZM236.546 477.167C237.066 477.167 237.49 477.007 237.818 476.687C238.146 476.367 238.31 475.879 238.31 475.223V474.335C238.31 473.679 238.146 473.191 237.818 472.871C237.49 472.551 237.066 472.391 236.546 472.391C236.026 472.391 235.602 472.551 235.274 472.871C234.946 473.191 234.782 473.679 234.782 474.335V475.223C234.782 475.879 234.946 476.367 235.274 476.687C235.602 477.007 236.026 477.167 236.546 477.167ZM242.341 477.875C242.005 477.875 241.749 477.783 241.573 477.599C241.405 477.407 241.321 477.167 241.321 476.879V468.995H242.281V477.035H243.193V477.875H242.341ZM247.331 478.019C246.915 478.019 246.535 477.943 246.191 477.791C245.847 477.639 245.551 477.423 245.303 477.143C245.063 476.855 244.875 476.515 244.739 476.123C244.603 475.723 244.535 475.275 244.535 474.779C244.535 474.291 244.603 473.847 244.739 473.447C244.875 473.047 245.063 472.707 245.303 472.427C245.551 472.139 245.847 471.919 246.191 471.767C246.535 471.615 246.915 471.539 247.331 471.539C247.747 471.539 248.123 471.615 248.459 471.767C248.803 471.919 249.099 472.139 249.347 472.427C249.595 472.707 249.787 473.047 249.923 473.447C250.059 473.847 250.127 474.291 250.127 474.779C250.127 475.275 250.059 475.723 249.923 476.123C249.787 476.515 249.595 476.855 249.347 477.143C249.099 477.423 248.803 477.639 248.459 477.791C248.123 477.943 247.747 478.019 247.331 478.019ZM247.331 477.167C247.851 477.167 248.275 477.007 248.603 476.687C248.931 476.367 249.095 475.879 249.095 475.223V474.335C249.095 473.679 248.931 473.191 248.603 472.871C248.275 472.551 247.851 472.391 247.331 472.391C246.811 472.391 246.387 472.551 246.059 472.871C245.731 473.191 245.567 473.679 245.567 474.335V475.223C245.567 475.879 245.731 476.367 246.059 476.687C246.387 477.007 246.811 477.167 247.331 477.167ZM252.105 477.875V471.683H253.065V472.823H253.125C253.237 472.527 253.437 472.263 253.725 472.031C254.013 471.799 254.409 471.683 254.913 471.683H255.285V472.643H254.721C254.201 472.643 253.793 472.743 253.497 472.943C253.209 473.135 253.065 473.379 253.065 473.675V477.875H252.105ZM260.392 477.875V476.231H256.348V475.343L259.852 469.499H261.352V475.391H262.564V476.231H261.352V477.875H260.392ZM257.296 475.391H260.392V470.279H260.332L257.296 475.391Z" fill="white"/>
<path d="M117.401 478.019C116.337 478.019 115.509 477.659 114.917 476.939C114.325 476.211 114.029 475.143 114.029 473.735C114.029 472.327 114.325 471.247 114.917 470.495C115.509 469.735 116.337 469.355 117.401 469.355C118.105 469.355 118.693 469.515 119.165 469.835C119.645 470.155 120.017 470.607 120.281 471.191L119.465 471.683C119.297 471.251 119.041 470.907 118.697 470.651C118.353 470.387 117.921 470.255 117.401 470.255C117.041 470.255 116.717 470.323 116.429 470.459C116.149 470.595 115.909 470.791 115.709 471.047C115.517 471.295 115.369 471.595 115.265 471.947C115.161 472.291 115.109 472.679 115.109 473.111V474.359C115.109 475.223 115.309 475.899 115.709 476.387C116.109 476.875 116.673 477.119 117.401 477.119C117.937 477.119 118.385 476.983 118.745 476.711C119.105 476.431 119.369 476.063 119.537 475.607L120.341 476.111C120.077 476.703 119.697 477.171 119.201 477.515C118.705 477.851 118.105 478.019 117.401 478.019ZM124.546 478.019C124.13 478.019 123.75 477.943 123.406 477.791C123.062 477.639 122.766 477.423 122.518 477.143C122.278 476.855 122.09 476.515 121.954 476.123C121.818 475.723 121.75 475.275 121.75 474.779C121.75 474.291 121.818 473.847 121.954 473.447C122.09 473.047 122.278 472.707 122.518 472.427C122.766 472.139 123.062 471.919 123.406 471.767C123.75 471.615 124.13 471.539 124.546 471.539C124.962 471.539 125.338 471.615 125.674 471.767C126.018 471.919 126.314 472.139 126.562 472.427C126.81 472.707 127.002 473.047 127.138 473.447C127.274 473.847 127.342 474.291 127.342 474.779C127.342 475.275 127.274 475.723 127.138 476.123C127.002 476.515 126.81 476.855 126.562 477.143C126.314 477.423 126.018 477.639 125.674 477.791C125.338 477.943 124.962 478.019 124.546 478.019ZM124.546 477.167C125.066 477.167 125.49 477.007 125.818 476.687C126.146 476.367 126.31 475.879 126.31 475.223V474.335C126.31 473.679 126.146 473.191 125.818 472.871C125.49 472.551 125.066 472.391 124.546 472.391C124.026 472.391 123.602 472.551 123.274 472.871C122.946 473.191 122.782 473.679 122.782 474.335V475.223C122.782 475.879 122.946 476.367 123.274 476.687C123.602 477.007 124.026 477.167 124.546 477.167ZM130.341 477.875C130.005 477.875 129.749 477.783 129.573 477.599C129.405 477.407 129.321 477.167 129.321 476.879V468.995H130.281V477.035H131.193V477.875H130.341ZM135.331 478.019C134.915 478.019 134.535 477.943 134.191 477.791C133.847 477.639 133.551 477.423 133.303 477.143C133.063 476.855 132.875 476.515 132.739 476.123C132.603 475.723 132.535 475.275 132.535 474.779C132.535 474.291 132.603 473.847 132.739 473.447C132.875 473.047 133.063 472.707 133.303 472.427C133.551 472.139 133.847 471.919 134.191 471.767C134.535 471.615 134.915 471.539 135.331 471.539C135.747 471.539 136.123 471.615 136.459 471.767C136.803 471.919 137.099 472.139 137.347 472.427C137.595 472.707 137.787 473.047 137.923 473.447C138.059 473.847 138.127 474.291 138.127 474.779C138.127 475.275 138.059 475.723 137.923 476.123C137.787 476.515 137.595 476.855 137.347 477.143C137.099 477.423 136.803 477.639 136.459 477.791C136.123 477.943 135.747 478.019 135.331 478.019ZM135.331 477.167C135.851 477.167 136.275 477.007 136.603 476.687C136.931 476.367 137.095 475.879 137.095 475.223V474.335C137.095 473.679 136.931 473.191 136.603 472.871C136.275 472.551 135.851 472.391 135.331 472.391C134.811 472.391 134.387 472.551 134.059 472.871C133.731 473.191 133.567 473.679 133.567 474.335V475.223C133.567 475.879 133.731 476.367 134.059 476.687C134.387 477.007 134.811 477.167 135.331 477.167ZM140.105 477.875V471.683H141.065V472.823H141.125C141.237 472.527 141.437 472.263 141.725 472.031C142.013 471.799 142.409 471.683 142.913 471.683H143.285V472.643H142.721C142.201 472.643 141.793 472.743 141.497 472.943C141.209 473.135 141.065 473.379 141.065 473.675V477.875H140.105ZM150.288 477.875H144.792V476.843L147.528 474.323C147.92 473.963 148.248 473.583 148.512 473.183C148.776 472.775 148.908 472.367 148.908 471.959V471.815C148.908 471.351 148.78 470.975 148.524 470.687C148.268 470.399 147.88 470.255 147.36 470.255C147.104 470.255 146.88 470.291 146.688 470.363C146.496 470.435 146.328 470.535 146.184 470.663C146.048 470.791 145.932 470.943 145.836 471.119C145.748 471.287 145.676 471.471 145.62 471.671L144.72 471.323C144.8 471.075 144.908 470.835 145.044 470.603C145.188 470.363 145.364 470.151 145.572 469.967C145.788 469.783 146.044 469.635 146.34 469.523C146.644 469.411 147 469.355 147.408 469.355C147.816 469.355 148.18 469.415 148.5 469.535C148.82 469.655 149.088 469.823 149.304 470.039C149.52 470.255 149.684 470.511 149.796 470.807C149.916 471.103 149.976 471.431 149.976 471.791C149.976 472.119 149.928 472.423 149.832 472.703C149.744 472.983 149.62 473.251 149.46 473.507C149.3 473.755 149.104 473.999 148.872 474.239C148.648 474.479 148.404 474.719 148.14 474.959L145.884 476.987H150.288V477.875Z" fill="white"/>
<path d="M61.401 478.019C60.337 478.019 59.509 477.659 58.917 476.939C58.325 476.211 58.029 475.143 58.029 473.735C58.029 472.327 58.325 471.247 58.917 470.495C59.509 469.735 60.337 469.355 61.401 469.355C62.105 469.355 62.693 469.515 63.165 469.835C63.645 470.155 64.017 470.607 64.281 471.191L63.465 471.683C63.297 471.251 63.041 470.907 62.697 470.651C62.353 470.387 61.921 470.255 61.401 470.255C61.041 470.255 60.717 470.323 60.429 470.459C60.149 470.595 59.909 470.791 59.709 471.047C59.517 471.295 59.369 471.595 59.265 471.947C59.161 472.291 59.109 472.679 59.109 473.111V474.359C59.109 475.223 59.309 475.899 59.709 476.387C60.109 476.875 60.673 477.119 61.401 477.119C61.937 477.119 62.385 476.983 62.745 476.711C63.105 476.431 63.369 476.063 63.537 475.607L64.341 476.111C64.077 476.703 63.697 477.171 63.201 477.515C62.705 477.851 62.105 478.019 61.401 478.019ZM68.5461 478.019C68.1301 478.019 67.7501 477.943 67.4061 477.791C67.0621 477.639 66.7661 477.423 66.5181 477.143C66.2781 476.855 66.0901 476.515 65.9541 476.123C65.8181 475.723 65.7501 475.275 65.7501 474.779C65.7501 474.291 65.8181 473.847 65.9541 473.447C66.0901 473.047 66.2781 472.707 66.5181 472.427C66.7661 472.139 67.0621 471.919 67.4061 471.767C67.7501 471.615 68.1301 471.539 68.5461 471.539C68.9621 471.539 69.3381 471.615 69.6741 471.767C70.0181 471.919 70.3141 472.139 70.5621 472.427C70.8101 472.707 71.0021 473.047 71.1381 473.447C71.2741 473.847 71.3421 474.291 71.3421 474.779C71.3421 475.275 71.2741 475.723 71.1381 476.123C71.0021 476.515 70.8101 476.855 70.5621 477.143C70.3141 477.423 70.0181 477.639 69.6741 477.791C69.3381 477.943 68.9621 478.019 68.5461 478.019ZM68.5461 477.167C69.0661 477.167 69.4901 477.007 69.8181 476.687C70.1461 476.367 70.3101 475.879 70.3101 475.223V474.335C70.3101 473.679 70.1461 473.191 69.8181 472.871C69.4901 472.551 69.0661 472.391 68.5461 472.391C68.0261 472.391 67.6021 472.551 67.2741 472.871C66.9461 473.191 66.7821 473.679 66.7821 474.335V475.223C66.7821 475.879 66.9461 476.367 67.2741 476.687C67.6021 477.007 68.0261 477.167 68.5461 477.167ZM74.341 477.875C74.005 477.875 73.749 477.783 73.573 477.599C73.405 477.407 73.321 477.167 73.321 476.879V468.995H74.281V477.035H75.193V477.875H74.341ZM79.3305 478.019C78.9145 478.019 78.5345 477.943 78.1905 477.791C77.8465 477.639 77.5505 477.423 77.3025 477.143C77.0625 476.855 76.8745 476.515 76.7385 476.123C76.6025 475.723 76.5345 475.275 76.5345 474.779C76.5345 474.291 76.6025 473.847 76.7385 473.447C76.8745 473.047 77.0625 472.707 77.3025 472.427C77.5505 472.139 77.8465 471.919 78.1905 471.767C78.5345 471.615 78.9145 471.539 79.3305 471.539C79.7465 471.539 80.1225 471.615 80.4585 471.767C80.8025 471.919 81.0985 472.139 81.3465 472.427C81.5945 472.707 81.7865 473.047 81.9225 473.447C82.0585 473.847 82.1265 474.291 82.1265 474.779C82.1265 475.275 82.0585 475.723 81.9225 476.123C81.7865 476.515 81.5945 476.855 81.3465 477.143C81.0985 477.423 80.8025 477.639 80.4585 477.791C80.1225 477.943 79.7465 478.019 79.3305 478.019ZM79.3305 477.167C79.8505 477.167 80.2745 477.007 80.6025 476.687C80.9305 476.367 81.0945 475.879 81.0945 475.223V474.335C81.0945 473.679 80.9305 473.191 80.6025 472.871C80.2745 472.551 79.8505 472.391 79.3305 472.391C78.8105 472.391 78.3865 472.551 78.0585 472.871C77.7305 473.191 77.5665 473.679 77.5665 474.335V475.223C77.5665 475.879 77.7305 476.367 78.0585 476.687C78.3865 477.007 78.8105 477.167 79.3305 477.167ZM84.1054 477.875V471.683H85.0654V472.823H85.1254C85.2374 472.527 85.4374 472.263 85.7254 472.031C86.0134 471.799 86.4094 471.683 86.9134 471.683H87.2854V472.643H86.7214C86.2014 472.643 85.7934 472.743 85.4974 472.943C85.2094 473.135 85.0654 473.379 85.0654 473.675V477.875H84.1054ZM88.9476 477.875V476.987H91.2876V470.243H91.2036L89.0916 472.211L88.5036 471.575L90.7236 469.499H92.2956V476.987H94.4556V477.875H88.9476Z" fill="white"/>
<rect x="31" y="116" width="270" height="270" rx="135" fill="#9F7DE1"/>
<g style="mix-blend-mode:overlay">
<path d="M166.001 251H301.001C301.001 288.175 285.623 321.831 261.193 346.192L166.001 251Z" fill="#ACB9FF"/>
</g>
<g opacity="0.4">
<path d="M166.001 251H301.001C301.001 213.825 285.623 180.169 261.193 155.808L166.001 251Z" fill="black"/>
</g>
<path d="M166 251V116C203.175 116 236.831 131.377 261.192 155.808L166 251Z" fill="black"/>
<defs>
<filter id="filter0_b_388_2258" x="-20" y="-20" width="370" height="542" filterUnits="userSpaceOnUse" color-interpolation-filters="sRGB">
<feFlood flood-opacity="0" result="BackgroundImageFix"/>
<feGaussianBlur in="BackgroundImageFix" stdDeviation="10"/>
<feComposite in2="SourceAlpha" operator="in" result="effect1_backgroundBlur_388_2258"/>
<feBlend mode="normal" in="SourceGraphic" in2="effect1_backgroundBlur_388_2258" result="shape"/>
</filter>
<linearGradient id="paint0_linear_388_2258" x1="47.4908" y1="-17.9286" x2="409.001" y2="120.825" gradientUnits="userSpaceOnUse">
<stop offset="0.188941" stop-color="#E7F0FF" stop-opacity="0.523483"/>
<stop offset="0.526042" stop-color="#88A4FF"/>
<stop offset="1" stop-color="#B4D2FF" stop-opacity="0.1"/>
</linearGradient>
<radialGradient id="paint1_radial_388_2258" cx="0" cy="0" r="1" gradientUnits="userSpaceOnUse" gradientTransform="translate(49.3173 485.565) rotate(-61.9531) scale(347.034 481.389)">
<stop stop-color="white"/>
<stop offset="1" stop-color="white" stop-opacity="0"/>
</radialGradient>
</defs>
</svg>
