<svg width="16" height="17" viewBox="0 0 16 17" fill="none" xmlns="http://www.w3.org/2000/svg">
<path d="M9.13092 2.80777C8.82251 2.62503 8.45387 2.58241 8.11358 2.69015L4.24836 3.91399C3.60835 4.11664 3.22877 4.79139 3.37778 5.46156L4.27769 9.50896C4.35692 9.86529 4.5772 10.1716 4.88561 10.3544L10.6465 13.768C11.2587 14.1307 12.0416 13.9155 12.395 13.2871L15.3603 8.01589C15.7138 7.38757 15.504 6.58413 14.8918 6.22137L9.13092 2.80777Z" fill="url(#paint0_linear_398_2244)"/>
<g filter="url(#filter0_b_398_2244)">
<path d="M8.49063 8.35912C8.49063 7.99363 8.34227 7.64467 8.0812 7.39608L5.11589 4.57253C4.62489 4.105 3.86573 4.105 3.37474 4.57253L0.409423 7.39608C0.148358 7.64467 0 7.99363 0 8.35912V15.1863C0 15.9118 0.573076 16.5 1.28 16.5H7.21063C7.91755 16.5 8.49063 15.9118 8.49063 15.1863V8.35912Z" fill="url(#paint1_linear_398_2244)" fill-opacity="0.3"/>
</g>
<g filter="url(#filter1_b_398_2244)">
<path fill-rule="evenodd" clip-rule="evenodd" d="M8.05944 7.42016L5.09413 4.59661C4.6154 4.14077 3.87522 4.14077 3.3965 4.59661L0.431187 7.42016C0.176649 7.66253 0.032 8.00277 0.032 8.35912V15.1863C0.032 15.8937 0.590749 16.4672 1.28 16.4672H7.21063C7.89988 16.4672 8.45863 15.8937 8.45863 15.1863V8.35912C8.45863 8.00277 8.31398 7.66253 8.05944 7.42016ZM8.0812 7.39608C8.34227 7.64467 8.49063 7.99363 8.49063 8.35912V15.1863C8.49063 15.9118 7.91755 16.5 7.21063 16.5H1.28C0.573076 16.5 0 15.9118 0 15.1863V8.35912C0 7.99363 0.148358 7.64467 0.409423 7.39608L3.37474 4.57253C3.86573 4.105 4.62489 4.105 5.11589 4.57253L8.0812 7.39608Z" fill="url(#paint2_linear_398_2244)"/>
<path fill-rule="evenodd" clip-rule="evenodd" d="M8.05944 7.42016L5.09413 4.59661C4.6154 4.14077 3.87522 4.14077 3.3965 4.59661L0.431187 7.42016C0.176649 7.66253 0.032 8.00277 0.032 8.35912V15.1863C0.032 15.8937 0.590749 16.4672 1.28 16.4672H7.21063C7.89988 16.4672 8.45863 15.8937 8.45863 15.1863V8.35912C8.45863 8.00277 8.31398 7.66253 8.05944 7.42016ZM8.0812 7.39608C8.34227 7.64467 8.49063 7.99363 8.49063 8.35912V15.1863C8.49063 15.9118 7.91755 16.5 7.21063 16.5H1.28C0.573076 16.5 0 15.9118 0 15.1863V8.35912C0 7.99363 0.148358 7.64467 0.409423 7.39608L3.37474 4.57253C3.86573 4.105 4.62489 4.105 5.11589 4.57253L8.0812 7.39608Z" fill="url(#paint3_radial_398_2244)"/>
</g>
<path d="M2.68945 10.1939C2.68945 9.98323 2.75134 9.81592 2.87511 9.69199C2.99889 9.56496 3.15738 9.50144 3.35059 9.50144C3.5438 9.50144 3.70229 9.56496 3.82606 9.69199C3.94984 9.81592 4.01173 9.98323 4.01173 10.1939C4.01173 10.4077 3.94984 10.5781 3.82606 10.7051C3.70229 10.8291 3.5438 10.891 3.35059 10.891C3.15738 10.891 2.99889 10.8291 2.87511 10.7051C2.75134 10.5781 2.68945 10.4077 2.68945 10.1939ZM5.02994 9.55256C5.16578 9.55256 5.25121 9.699 5.18436 9.81725L3.55096 12.7064C3.51948 12.7621 3.46049 12.7965 3.39654 12.7965C3.2607 12.7965 3.17526 12.6501 3.24212 12.5318L4.87552 9.64265C4.90699 9.58698 4.96599 9.55256 5.02994 9.55256ZM3.35059 9.7617C3.24795 9.7617 3.16644 9.79888 3.10606 9.87324C3.0487 9.9445 3.02002 10.0514 3.02002 10.1939C3.02002 10.3364 3.0487 10.4449 3.10606 10.5192C3.16644 10.5936 3.24795 10.6308 3.35059 10.6308C3.45323 10.6308 3.53474 10.5936 3.59512 10.5192C3.6555 10.4418 3.68569 10.3333 3.68569 10.1939C3.68569 10.0514 3.6555 9.9445 3.59512 9.87324C3.53474 9.79888 3.45323 9.7617 3.35059 9.7617ZM4.4238 12.1552C4.4238 11.9414 4.48569 11.7725 4.60947 11.6486C4.73324 11.5216 4.89173 11.458 5.08494 11.458C5.27815 11.458 5.43513 11.5216 5.55589 11.6486C5.67966 11.7725 5.74155 11.9414 5.74155 12.1552C5.74155 12.3659 5.67966 12.5347 5.55589 12.6617C5.43513 12.7888 5.27815 12.8523 5.08494 12.8523C4.89173 12.8523 4.73324 12.7903 4.60947 12.6664C4.48569 12.5394 4.4238 12.369 4.4238 12.1552ZM5.08041 11.7229C4.97777 11.7229 4.89626 11.7601 4.83588 11.8345C4.77551 11.9058 4.74532 12.0126 4.74532 12.1552C4.74532 12.2946 4.77551 12.4015 4.83588 12.4758C4.89626 12.5471 4.97777 12.5827 5.08041 12.5827C5.18306 12.5827 5.26457 12.5471 5.32494 12.4758C5.38532 12.4015 5.41551 12.2946 5.41551 12.1552C5.41551 12.0126 5.38532 11.9058 5.32494 11.8345C5.26457 11.7601 5.18306 11.7229 5.08041 11.7229Z" fill="white"/>
<ellipse cx="4.24484" cy="5.1475" rx="0.424531" ry="0.435704" fill="white"/>
<defs>
<filter id="filter0_b_398_2244" x="-1" y="3.22189" width="10.4902" height="14.2781" filterUnits="userSpaceOnUse" color-interpolation-filters="sRGB">
<feFlood flood-opacity="0" result="BackgroundImageFix"/>
<feGaussianBlur in="BackgroundImageFix" stdDeviation="0.5"/>
<feComposite in2="SourceAlpha" operator="in" result="effect1_backgroundBlur_398_2244"/>
<feBlend mode="normal" in="SourceGraphic" in2="effect1_backgroundBlur_398_2244" result="shape"/>
</filter>
<filter id="filter1_b_398_2244" x="-30" y="-25.7781" width="68.4902" height="72.2781" filterUnits="userSpaceOnUse" color-interpolation-filters="sRGB">
<feFlood flood-opacity="0" result="BackgroundImageFix"/>
<feGaussianBlur in="BackgroundImageFix" stdDeviation="15"/>
<feComposite in2="SourceAlpha" operator="in" result="effect1_backgroundBlur_398_2244"/>
<feBlend mode="normal" in="SourceGraphic" in2="effect1_backgroundBlur_398_2244" result="shape"/>
</filter>
<linearGradient id="paint0_linear_398_2244" x1="11.755" y1="14.4248" x2="16.1679" y2="6.97749" gradientUnits="userSpaceOnUse">
<stop stop-color="#FBC2EB"/>
<stop offset="1" stop-color="#A18CD1"/>
</linearGradient>
<linearGradient id="paint1_linear_398_2244" x1="0" y1="16.5" x2="8.49063" y2="16.5" gradientUnits="userSpaceOnUse">
<stop stop-color="#E100FF"/>
<stop offset="1" stop-color="#7F00FF"/>
</linearGradient>
<linearGradient id="paint2_linear_398_2244" x1="1.2219" y1="3.78338" x2="10.3977" y2="7.48815" gradientUnits="userSpaceOnUse">
<stop offset="0.188941" stop-color="#E7F0FF" stop-opacity="0.523483"/>
<stop offset="0.526042" stop-color="#88A4FF"/>
<stop offset="1" stop-color="#B4D2FF" stop-opacity="0.1"/>
</linearGradient>
<radialGradient id="paint3_radial_398_2244" cx="0" cy="0" r="1" gradientUnits="userSpaceOnUse" gradientTransform="translate(1.26889 16.098) rotate(-60.732) scale(8.58735 12.2423)">
<stop stop-color="white"/>
<stop offset="1" stop-color="white" stop-opacity="0"/>
</radialGradient>
</defs>
</svg>
